<svg width="690" height="519" viewBox="0 0 690 519" fill="none" xmlns="http://www.w3.org/2000/svg">
<circle cx="330" cy="216" r="189.5" fill="url(#paint0_radial)" stroke="#4D4D4D" stroke-width="41"/>
<g filter="url(#filter0_d)">
<line x1="211.5" y1="372.001" x2="211.5" y2="77.9991" stroke="#4D4D4D" stroke-width="16"/>
<line x1="183" y1="97" x2="477.002" y2="97" stroke="#4D4D4D" stroke-width="16"/>
<line x1="183" y1="337" x2="477.002" y2="337" stroke="#4D4D4D" stroke-width="16"/>
<line x1="453.5" y1="372.001" x2="453.5" y2="77.9991" stroke="#4D4D4D" stroke-width="16"/>
<line x1="375" y1="390" x2="375" y2="42" stroke="#4D4D4D" stroke-width="16"/>
<line x1="290" y1="390" x2="290" y2="42" stroke="#4D4D4D" stroke-width="16"/>
<line x1="156" y1="177" x2="504" y2="177" stroke="#4D4D4D" stroke-width="16"/>
<line x1="156" y1="259" x2="504" y2="259" stroke="#4D4D4D" stroke-width="16"/>
<circle cx="330" cy="216" r="189.5" stroke="#4D4D4D" stroke-width="41"/>
</g>
<circle cx="330" cy="25" r="10" fill="#616161"/>
<circle cx="519" cy="216" r="10" fill="#616161"/>
<circle cx="140" cy="216" r="10" fill="#616161"/>
<circle cx="190" cy="87" r="10" fill="#616161"/>
<circle cx="470" cy="89" r="10" fill="#616161"/>
<circle cx="461" cy="349" r="10" fill="#616161"/>
<circle cx="199" cy="353" r="10" fill="#616161"/>
<circle cx="330" cy="405" r="10" fill="#616161"/>
<path d="M269.643 368.388C262.301 369.723 258.638 372.16 254.203 378.259C252.727 380.473 252.955 386.519 253.122 390.955C253.169 392.177 253.21 393.277 253.21 394.141V411.015L253.21 411.167C253.21 416.937 253.21 420.444 257.18 424.911C258.188 426.045 259.498 426.963 260.804 427.878C263.369 429.675 265.915 431.459 266.114 434.837C266.25 437.145 266.927 439.301 267.602 441.448C268.349 443.824 269.092 446.188 269.092 448.734C269.092 453.358 270.984 460.168 274.055 463.623C277.209 467.172 280.788 472.071 282.768 476.527C283.509 478.195 283.713 480.093 283.917 481.989C284.247 485.056 284.576 488.12 287.179 490.202C289.228 491.841 291.742 491.959 294.308 492.08C297.39 492.224 300.547 492.372 303.061 495.165C306.736 499.249 310.817 504.384 313.538 509.282C319.91 520.751 331.062 518.743 342.106 516.755C346.33 515.995 350.537 515.238 354.455 515.238C355.295 515.238 356.173 515.292 357.061 515.347C360.246 515.544 363.547 515.748 365.595 513.473C366.786 512.149 367.52 509.94 368.201 507.888C368.507 506.966 368.802 506.076 369.124 505.312C369.781 503.751 370.349 501.984 370.932 500.169C372.204 496.206 373.552 492.01 376.072 489.21C378.685 486.306 383.028 478.371 383.241 474.541C383.451 470.751 384.891 462.438 386.715 459.156C389.316 454.474 390.801 447.751 391.996 442.342C392.075 441.985 392.153 441.634 392.229 441.289C392.81 438.676 393.738 436.243 394.664 433.816C395.587 431.398 396.508 428.984 397.082 426.4C397.222 425.772 397.358 425.152 397.492 424.54C399.538 415.201 401.161 407.796 409.545 401.089C418.871 393.628 413.903 380.358 409.049 371.862C406.543 367.477 401.18 365.355 396.641 365.355C395.88 365.355 394.818 365.291 393.595 365.218C388.999 364.942 382.116 364.528 380.263 366.844C378.235 369.379 369.079 370.318 365.87 370.318C364.278 370.318 362.865 370.201 361.54 370.092C357.966 369.796 355.038 369.553 350.981 371.807C345.397 374.909 341.377 375.281 335.1 375.281C332.017 375.281 329.25 374.271 326.508 373.269C323.815 372.286 321.146 371.311 318.225 371.311C313.583 371.311 309.915 370.215 305.868 369.006C305.061 368.765 304.239 368.52 303.392 368.278C297.809 366.683 292.628 366.348 286.462 366.348C280.86 366.348 275.431 367.335 269.998 368.324C269.88 368.345 269.761 368.367 269.643 368.388Z" fill="url(#paint1_radial)" fill-opacity="0.94"/>
<path d="M269.643 368.388C262.301 369.723 258.638 372.16 254.203 378.259C252.727 380.473 252.955 386.519 253.122 390.955C253.169 392.177 253.21 393.277 253.21 394.141V411.015L253.21 411.167C253.21 416.937 253.21 420.444 257.18 424.911C258.188 426.045 259.498 426.963 260.804 427.878C263.369 429.675 265.915 431.459 266.114 434.837C266.25 437.145 266.927 439.301 267.602 441.448C268.349 443.824 269.092 446.188 269.092 448.734C269.092 453.358 270.984 460.168 274.055 463.623C277.209 467.172 280.788 472.071 282.768 476.527C283.509 478.195 283.713 480.093 283.917 481.989C284.247 485.056 284.576 488.12 287.179 490.202C289.228 491.841 291.742 491.959 294.308 492.08C297.39 492.224 300.547 492.372 303.061 495.165C306.736 499.249 310.817 504.384 313.538 509.282C319.91 520.751 331.062 518.743 342.106 516.755C346.33 515.995 350.537 515.238 354.455 515.238C355.295 515.238 356.173 515.292 357.061 515.347C360.246 515.544 363.547 515.748 365.595 513.473C366.786 512.149 367.52 509.94 368.201 507.888C368.507 506.966 368.802 506.076 369.124 505.312C369.781 503.751 370.349 501.984 370.932 500.169C372.204 496.206 373.552 492.01 376.072 489.21C378.685 486.306 383.028 478.371 383.241 474.541C383.451 470.751 384.891 462.438 386.715 459.156C389.316 454.474 390.801 447.751 391.996 442.342C392.075 441.985 392.153 441.634 392.229 441.289C392.81 438.676 393.738 436.243 394.664 433.816C395.587 431.398 396.508 428.984 397.082 426.4C397.222 425.772 397.358 425.152 397.492 424.54C399.538 415.201 401.161 407.796 409.545 401.089C418.871 393.628 413.903 380.358 409.049 371.862C406.543 367.477 401.18 365.355 396.641 365.355C395.88 365.355 394.818 365.291 393.595 365.218C388.999 364.942 382.116 364.528 380.263 366.844C378.235 369.379 369.079 370.318 365.87 370.318C364.278 370.318 362.865 370.201 361.54 370.092C357.966 369.796 355.038 369.553 350.981 371.807C345.397 374.909 341.377 375.281 335.1 375.281C332.017 375.281 329.25 374.271 326.508 373.269C323.815 372.286 321.146 371.311 318.225 371.311C313.583 371.311 309.915 370.215 305.868 369.006C305.061 368.765 304.239 368.52 303.392 368.278C297.809 366.683 292.628 366.348 286.462 366.348C280.86 366.348 275.431 367.335 269.998 368.324C269.88 368.345 269.761 368.367 269.643 368.388Z" stroke="#616161"/>
<g filter="url(#filter1_ddi)">
<rect x="68" y="297" width="162" height="522" rx="24" transform="rotate(-90 68 297)" fill="url(#paint2_linear)"/>
<rect x="68.5" y="296.5" width="161" height="521" rx="23.5" transform="rotate(-90 68.5 296.5)" stroke="url(#paint3_linear)" stroke-opacity="0.4"/>
</g>
<mask id="mask0" mask-type="alpha" maskUnits="userSpaceOnUse" x="110" y="194" width="442" height="43">
<path d="M119.32 221.472V236H110.823V194.766H126.909C130.006 194.766 132.724 195.332 135.066 196.465C137.426 197.598 139.238 199.212 140.503 201.308C141.768 203.384 142.401 205.754 142.401 208.416C142.401 212.456 141.013 215.647 138.238 217.988C135.481 220.311 131.658 221.472 126.768 221.472H119.32ZM119.32 214.59H126.909C129.156 214.59 130.865 214.061 132.035 213.004C133.225 211.947 133.82 210.436 133.82 208.473C133.82 206.452 133.225 204.819 132.035 203.573C130.846 202.327 129.203 201.685 127.108 201.647H119.32V214.59ZM160.197 236H151.701V194.766H160.197V236ZM186.263 208.982L193.995 194.766H203.765L191.757 215.213L204.077 236H194.193L186.263 221.557L178.333 236H168.45L180.769 215.213L168.761 194.766H178.532L186.263 208.982ZM242.915 222.265C242.594 226.701 240.951 230.194 237.987 232.743C235.042 235.292 231.153 236.566 226.319 236.566C221.033 236.566 216.87 234.792 213.83 231.242C210.809 227.674 209.299 222.784 209.299 216.572V214.052C209.299 210.087 209.997 206.594 211.395 203.573C212.792 200.552 214.784 198.24 217.37 196.635C219.976 195.011 222.996 194.199 226.433 194.199C231.19 194.199 235.023 195.474 237.931 198.022C240.838 200.571 242.519 204.149 242.972 208.756H234.476C234.268 206.094 233.522 204.168 232.238 202.979C230.973 201.77 229.038 201.166 226.433 201.166C223.601 201.166 221.477 202.186 220.061 204.225C218.663 206.245 217.946 209.388 217.908 213.655V216.771C217.908 221.226 218.578 224.483 219.919 226.541C221.278 228.599 223.412 229.628 226.319 229.628C228.944 229.628 230.898 229.033 232.182 227.844C233.484 226.635 234.23 224.776 234.419 222.265H242.915ZM285.265 216.317C285.265 220.377 284.548 223.936 283.113 226.994C281.678 230.053 279.62 232.413 276.939 234.074C274.277 235.736 271.218 236.566 267.763 236.566C264.346 236.566 261.297 235.745 258.616 234.103C255.935 232.46 253.858 230.119 252.385 227.079C250.913 224.021 250.167 220.509 250.148 216.544V214.505C250.148 210.446 250.875 206.877 252.329 203.8C253.801 200.703 255.869 198.334 258.531 196.691C261.212 195.03 264.27 194.199 267.707 194.199C271.143 194.199 274.192 195.03 276.854 196.691C279.535 198.334 281.602 200.703 283.056 203.8C284.529 206.877 285.265 210.436 285.265 214.477V216.317ZM276.656 214.448C276.656 210.125 275.882 206.84 274.334 204.593C272.785 202.346 270.576 201.223 267.707 201.223C264.856 201.223 262.656 202.337 261.108 204.564C259.56 206.773 258.776 210.021 258.757 214.307V216.317C258.757 220.528 259.532 223.794 261.08 226.116C262.628 228.438 264.856 229.6 267.763 229.6C270.614 229.6 272.804 228.486 274.334 226.258C275.863 224.011 276.637 220.745 276.656 216.459V214.448ZM302.835 229.175H320.875V236H294.339V194.766H302.835V229.175ZM337.171 229.175H355.211V236H328.675V194.766H337.171V229.175ZM387.819 218.13H371.506V229.175H390.651V236H363.01V194.766H390.594V201.647H371.506V211.475H387.819V218.13ZM430.905 222.265C430.584 226.701 428.942 230.194 425.978 232.743C423.032 235.292 419.143 236.566 414.31 236.566C409.023 236.566 404.86 234.792 401.82 231.242C398.799 227.674 397.289 222.784 397.289 216.572V214.052C397.289 210.087 397.988 206.594 399.385 203.573C400.782 200.552 402.774 198.24 405.36 196.635C407.966 195.011 410.987 194.199 414.423 194.199C419.181 194.199 423.013 195.474 425.921 198.022C428.828 200.571 430.509 204.149 430.962 208.756H422.466C422.258 206.094 421.512 204.168 420.229 202.979C418.964 201.77 417.028 201.166 414.423 201.166C411.591 201.166 409.467 202.186 408.051 204.225C406.654 206.245 405.936 209.388 405.898 213.655V216.771C405.898 221.226 406.569 224.483 407.909 226.541C409.269 228.599 411.402 229.628 414.31 229.628C416.934 229.628 418.888 229.033 420.172 227.844C421.475 226.635 422.22 224.776 422.409 222.265H430.905ZM469.574 201.647H456.943V236H448.447V201.647H435.986V194.766H469.574V201.647ZM510.423 216.317C510.423 220.377 509.706 223.936 508.271 226.994C506.836 230.053 504.778 232.413 502.097 234.074C499.435 235.736 496.376 236.566 492.921 236.566C489.504 236.566 486.455 235.745 483.774 234.103C481.093 232.46 479.016 230.119 477.543 227.079C476.07 224.021 475.325 220.509 475.306 216.544V214.505C475.306 210.446 476.033 206.877 477.487 203.8C478.959 200.703 481.027 198.334 483.689 196.691C486.37 195.03 489.428 194.199 492.864 194.199C496.301 194.199 499.35 195.03 502.012 196.691C504.693 198.334 506.76 200.703 508.214 203.8C509.687 206.877 510.423 210.436 510.423 214.477V216.317ZM501.814 214.448C501.814 210.125 501.04 206.84 499.491 204.593C497.943 202.346 495.734 201.223 492.864 201.223C490.014 201.223 487.814 202.337 486.266 204.564C484.718 206.773 483.934 210.021 483.915 214.307V216.317C483.915 220.528 484.689 223.794 486.237 226.116C487.786 228.438 490.014 229.6 492.921 229.6C495.772 229.6 497.962 228.486 499.491 226.258C501.021 224.011 501.795 220.745 501.814 216.459V214.448ZM534.762 220.905H527.993V236H519.497V194.766H534.818C539.689 194.766 543.446 195.851 546.09 198.022C548.733 200.194 550.055 203.262 550.055 207.227C550.055 210.04 549.441 212.39 548.214 214.278C547.005 216.147 545.165 217.639 542.691 218.753L551.612 235.604V236H542.493L534.762 220.905ZM527.993 214.023H534.846C536.98 214.023 538.632 213.485 539.803 212.409C540.973 211.314 541.558 209.813 541.558 207.906C541.558 205.962 541.001 204.432 539.888 203.318C538.792 202.204 537.103 201.647 534.818 201.647H527.993V214.023Z" fill="#FF7595"/>
</mask>
<g mask="url(#mask0)">
<g filter="url(#filter2_ddi)">
<rect x="68" y="297" width="162" height="522" rx="24" transform="rotate(-90 68 297)" fill="url(#paint4_radial)"/>
<rect x="68.5" y="296.5" width="161" height="521" rx="23.5" transform="rotate(-90 68.5 296.5)" stroke="url(#paint5_linear)" stroke-opacity="0.4"/>
</g>
</g>
<defs>
<filter id="filter0_d" x="114" y="0" width="436" height="436" filterUnits="userSpaceOnUse" color-interpolation-filters="sRGB">
<feFlood flood-opacity="0" result="BackgroundImageFix"/>
<feColorMatrix in="SourceAlpha" type="matrix" values="0 0 0 0 0 0 0 0 0 0 0 0 0 0 0 0 0 0 127 0"/>
<feOffset dx="2" dy="2"/>
<feGaussianBlur stdDeviation="4"/>
<feColorMatrix type="matrix" values="0 0 0 0 0.379167 0 0 0 0 0.379167 0 0 0 0 0.379167 0 0 0 1 0"/>
<feBlend mode="normal" in2="BackgroundImageFix" result="effect1_dropShadow"/>
<feBlend mode="normal" in="SourceGraphic" in2="effect1_dropShadow" result="shape"/>
</filter>
<filter id="filter1_ddi" x="0" y="59" width="690" height="314" filterUnits="userSpaceOnUse" color-interpolation-filters="sRGB">
<feFlood flood-opacity="0" result="BackgroundImageFix"/>
<feColorMatrix in="SourceAlpha" type="matrix" values="0 0 0 0 0 0 0 0 0 0 0 0 0 0 0 0 0 0 127 0"/>
<feOffset dx="-12" dy="-20"/>
<feGaussianBlur stdDeviation="28"/>
<feColorMatrix type="matrix" values="0 0 0 0 0.909 0 0 0 0 0.93084 0 0 0 0 0.951 0 0 0 0.05 0"/>
<feBlend mode="normal" in2="BackgroundImageFix" result="effect1_dropShadow"/>
<feColorMatrix in="SourceAlpha" type="matrix" values="0 0 0 0 0 0 0 0 0 0 0 0 0 0 0 0 0 0 127 0"/>
<feOffset dx="36" dy="12"/>
<feGaussianBlur stdDeviation="32"/>
<feColorMatrix type="matrix" values="0 0 0 0 0.294118 0 0 0 0 0.294118 0 0 0 0 0.294118 0 0 0 1 0"/>
<feBlend mode="normal" in2="effect1_dropShadow" result="effect2_dropShadow"/>
<feBlend mode="normal" in="SourceGraphic" in2="effect2_dropShadow" result="shape"/>
<feColorMatrix in="SourceAlpha" type="matrix" values="0 0 0 0 0 0 0 0 0 0 0 0 0 0 0 0 0 0 127 0" result="hardAlpha"/>
<feOffset dx="-16" dy="-6"/>
<feGaussianBlur stdDeviation="40"/>
<feComposite in2="hardAlpha" operator="arithmetic" k2="-1" k3="1"/>
<feColorMatrix type="matrix" values="0 0 0 0 0.974 0 0 0 0 0.974889 0 0 0 0 0.976 0 0 0 0.03 0"/>
<feBlend mode="normal" in2="shape" result="effect3_innerShadow"/>
</filter>
<filter id="filter2_ddi" x="0" y="59" width="690" height="314" filterUnits="userSpaceOnUse" color-interpolation-filters="sRGB">
<feFlood flood-opacity="0" result="BackgroundImageFix"/>
<feColorMatrix in="SourceAlpha" type="matrix" values="0 0 0 0 0 0 0 0 0 0 0 0 0 0 0 0 0 0 127 0"/>
<feOffset dx="-12" dy="-20"/>
<feGaussianBlur stdDeviation="28"/>
<feColorMatrix type="matrix" values="0 0 0 0 0.909 0 0 0 0 0.93084 0 0 0 0 0.951 0 0 0 0.05 0"/>
<feBlend mode="normal" in2="BackgroundImageFix" result="effect1_dropShadow"/>
<feColorMatrix in="SourceAlpha" type="matrix" values="0 0 0 0 0 0 0 0 0 0 0 0 0 0 0 0 0 0 127 0"/>
<feOffset dx="36" dy="12"/>
<feGaussianBlur stdDeviation="32"/>
<feColorMatrix type="matrix" values="0 0 0 0 0.294118 0 0 0 0 0.294118 0 0 0 0 0.294118 0 0 0 1 0"/>
<feBlend mode="normal" in2="effect1_dropShadow" result="effect2_dropShadow"/>
<feBlend mode="normal" in="SourceGraphic" in2="effect2_dropShadow" result="shape"/>
<feColorMatrix in="SourceAlpha" type="matrix" values="0 0 0 0 0 0 0 0 0 0 0 0 0 0 0 0 0 0 127 0" result="hardAlpha"/>
<feOffset dx="-16" dy="-6"/>
<feGaussianBlur stdDeviation="40"/>
<feComposite in2="hardAlpha" operator="arithmetic" k2="-1" k3="1"/>
<feColorMatrix type="matrix" values="0 0 0 0 0.974 0 0 0 0 0.974889 0 0 0 0 0.976 0 0 0 0.03 0"/>
<feBlend mode="normal" in2="shape" result="effect3_innerShadow"/>
</filter>
<radialGradient id="paint0_radial" cx="0" cy="0" r="1" gradientUnits="userSpaceOnUse" gradientTransform="translate(320.5 463.5) rotate(-80.4948) scale(439.028)">
<stop offset="0.182292" stop-color="#D400F7"/>
<stop offset="0.411458" stop-color="#FF3DC9"/>
<stop offset="0.854167" stop-color="#FFEA29"/>
</radialGradient>
<radialGradient id="paint1_radial" cx="0" cy="0" r="1" gradientUnits="userSpaceOnUse" gradientTransform="translate(321.554 541.502) rotate(-78.28) scale(174.951 169.642)">
<stop stop-color="#FF2929"/>
<stop offset="0.640784" stop-color="#FF3DC9"/>
<stop offset="0.994792" stop-color="#D400F7"/>
</radialGradient>
<linearGradient id="paint2_linear" x1="248.804" y1="-75.8571" x2="-448.416" y2="290.742" gradientUnits="userSpaceOnUse">
<stop offset="0.226599" stop-color="#4C4C4C"/>
<stop offset="0.697917" stop-color="#616161"/>
</linearGradient>
<linearGradient id="paint3_linear" x1="215.293" y1="272.961" x2="-6.42812" y2="305.071" gradientUnits="userSpaceOnUse">
<stop offset="0.0709612" stop-color="#484848"/>
<stop offset="0.507086" stop-color="#5F5F5F"/>
<stop offset="1" stop-color="#3F3F3F"/>
</linearGradient>
<radialGradient id="paint4_radial" cx="0" cy="0" r="1" gradientUnits="userSpaceOnUse" gradientTransform="translate(96 567.5) scale(85.5 750.787)">
<stop offset="0.182292" stop-color="#D400F7"/>
<stop offset="0.411458" stop-color="#FF3DC9"/>
<stop offset="0.854167" stop-color="#FFEA29"/>
</radialGradient>
<linearGradient id="paint5_linear" x1="215.293" y1="272.961" x2="-6.42812" y2="305.071" gradientUnits="userSpaceOnUse">
<stop offset="0.0709612" stop-color="#484848"/>
<stop offset="0.507086" stop-color="#5F5F5F"/>
<stop offset="1" stop-color="#3F3F3F"/>
</linearGradient>
</defs>
</svg>
