<svg width="162" height="154" viewBox="0 0 162 154" fill="none" xmlns="http://www.w3.org/2000/svg">
<path d="M16.6432 3.38809C9.30054 4.72311 5.63824 7.16007 1.20268 13.259C-0.273138 15.4727 -0.0449679 21.5186 0.122447 25.9546C0.168569 27.1767 0.21008 28.2766 0.21008 29.1406V46.0148L0.210075 46.1669C0.209773 51.9374 0.209589 55.444 4.18049 59.9112C5.18803 61.0447 6.49842 61.9629 7.80414 62.8777C10.3687 64.6745 12.9152 66.4588 13.1139 69.8373C13.2497 72.1453 13.9273 74.3014 14.6019 76.4478C15.3486 78.8239 16.0917 81.1882 16.0917 83.7337C16.0917 88.3583 17.9838 95.1679 21.0547 98.6227C24.2095 102.172 27.7875 107.071 29.7675 111.527C30.5091 113.195 30.7131 115.093 30.9169 116.989C31.2466 120.056 31.5759 123.12 34.1791 125.202C36.2279 126.841 38.7419 126.959 41.3076 127.08C44.3899 127.224 47.5467 127.372 50.0607 130.165C53.7362 134.249 57.817 139.384 60.5382 144.282C66.9095 155.751 78.0618 153.743 89.1064 151.755C93.3296 150.995 97.537 150.238 101.455 150.238C102.295 150.238 103.173 150.292 104.061 150.347C107.246 150.544 110.547 150.748 112.595 148.473C113.786 147.149 114.52 144.94 115.201 142.888C115.507 141.966 115.802 141.076 116.124 140.312C116.781 138.751 117.349 136.984 117.932 135.169C119.204 131.206 120.552 127.01 123.072 124.21C125.685 121.306 130.028 113.371 130.241 109.541C130.451 105.751 131.891 97.4383 133.715 94.156C136.316 89.4736 137.801 82.7514 138.996 77.3421C139.075 76.9851 139.153 76.6338 139.229 76.2892C139.81 73.6757 140.738 71.2435 141.664 68.8159C142.587 66.3976 143.508 63.9838 144.082 61.4001C144.222 60.7715 144.358 60.1516 144.492 59.5399C146.538 50.2009 148.161 42.796 156.545 36.0888C165.871 28.6277 160.903 15.3582 156.049 6.8622C153.543 2.47688 148.18 0.355143 143.641 0.355143C142.88 0.355143 141.818 0.291387 140.595 0.217902C135.999 -0.0582333 129.116 -0.47175 127.263 1.84404C125.235 4.37888 116.079 5.31815 112.87 5.31815C111.278 5.31815 109.865 5.20119 108.54 5.09157C104.966 4.79578 102.038 4.55346 97.9813 6.80705C92.3971 9.90941 88.3772 10.2812 82.0997 10.2812C79.0171 10.2812 76.2503 9.27063 73.5084 8.26919C70.8154 7.28559 68.1463 6.31075 65.2255 6.31075C60.5832 6.31075 56.9153 5.21525 52.868 4.00645C52.0612 3.76547 51.2393 3.52 50.3916 3.2778C44.8085 1.68263 39.6279 1.34774 33.4622 1.34774C27.8596 1.34774 22.4305 2.33534 16.9979 3.32358C16.8796 3.34508 16.7614 3.36659 16.6432 3.38809Z" fill="url(#paint0_radial)" fill-opacity="0.94"/>
<path d="M16.6432 3.38809C9.30054 4.72311 5.63824 7.16007 1.20268 13.259C-0.273138 15.4727 -0.0449679 21.5186 0.122447 25.9546C0.168569 27.1767 0.21008 28.2766 0.21008 29.1406V46.0148L0.210075 46.1669C0.209773 51.9374 0.209589 55.444 4.18049 59.9112C5.18803 61.0447 6.49842 61.9629 7.80414 62.8777C10.3687 64.6745 12.9152 66.4588 13.1139 69.8373C13.2497 72.1453 13.9273 74.3014 14.6019 76.4478C15.3486 78.8239 16.0917 81.1882 16.0917 83.7337C16.0917 88.3583 17.9838 95.1679 21.0547 98.6227C24.2095 102.172 27.7875 107.071 29.7675 111.527C30.5091 113.195 30.7131 115.093 30.9169 116.989C31.2466 120.056 31.5759 123.12 34.1791 125.202C36.2279 126.841 38.7419 126.959 41.3076 127.08C44.3899 127.224 47.5467 127.372 50.0607 130.165C53.7362 134.249 57.817 139.384 60.5382 144.282C66.9095 155.751 78.0618 153.743 89.1064 151.755C93.3296 150.995 97.537 150.238 101.455 150.238C102.295 150.238 103.173 150.292 104.061 150.347C107.246 150.544 110.547 150.748 112.595 148.473C113.786 147.149 114.52 144.94 115.201 142.888C115.507 141.966 115.802 141.076 116.124 140.312C116.781 138.751 117.349 136.984 117.932 135.169C119.204 131.206 120.552 127.01 123.072 124.21C125.685 121.306 130.028 113.371 130.241 109.541C130.451 105.751 131.891 97.4383 133.715 94.156C136.316 89.4736 137.801 82.7514 138.996 77.3421C139.075 76.9851 139.153 76.6338 139.229 76.2892C139.81 73.6757 140.738 71.2435 141.664 68.8159C142.587 66.3976 143.508 63.9838 144.082 61.4001C144.222 60.7715 144.358 60.1516 144.492 59.5399C146.538 50.2009 148.161 42.796 156.545 36.0888C165.871 28.6277 160.903 15.3582 156.049 6.8622C153.543 2.47688 148.18 0.355143 143.641 0.355143C142.88 0.355143 141.818 0.291387 140.595 0.217902C135.999 -0.0582333 129.116 -0.47175 127.263 1.84404C125.235 4.37888 116.079 5.31815 112.87 5.31815C111.278 5.31815 109.865 5.20119 108.54 5.09157C104.966 4.79578 102.038 4.55346 97.9813 6.80705C92.3971 9.90941 88.3772 10.2812 82.0997 10.2812C79.0171 10.2812 76.2503 9.27063 73.5084 8.26919C70.8154 7.28559 68.1463 6.31075 65.2255 6.31075C60.5832 6.31075 56.9153 5.21525 52.868 4.00645C52.0612 3.76547 51.2393 3.52 50.3916 3.2778C44.8085 1.68263 39.6279 1.34774 33.4622 1.34774C27.8596 1.34774 22.4305 2.33534 16.9979 3.32358C16.8796 3.34508 16.7614 3.36659 16.6432 3.38809Z" stroke="#616161"/>
<defs>
<radialGradient id="paint0_radial" cx="0" cy="0" r="1" gradientUnits="userSpaceOnUse" gradientTransform="translate(68.5537 176.502) rotate(-78.28) scale(174.951 169.642)">
<stop stop-color="#FF2929"/>
<stop offset="0.640784" stop-color="#FF3DC9"/>
<stop offset="0.994792" stop-color="#D400F7"/>
</radialGradient>
</defs>
</svg>
