<svg width="538" height="589" viewBox="0 0 538 589" fill="none" xmlns="http://www.w3.org/2000/svg">
<circle cx="278" cy="286" r="189.5" fill="url(#paint0_radial)" stroke="#4D4D4D" stroke-width="41"/>
<g filter="url(#filter0_i)">
<line x1="159.5" y1="442.001" x2="159.5" y2="147.999" stroke="#4D4D4D" stroke-width="16"/>
</g>
<g filter="url(#filter1_i)">
<line x1="131" y1="167" x2="425.002" y2="167" stroke="#4D4D4D" stroke-width="16"/>
</g>
<g filter="url(#filter2_i)">
<line x1="131" y1="407" x2="425.002" y2="407" stroke="#4D4D4D" stroke-width="16"/>
</g>
<g filter="url(#filter3_i)">
<line x1="401.5" y1="442.001" x2="401.5" y2="147.999" stroke="#4D4D4D" stroke-width="16"/>
</g>
<g filter="url(#filter4_i)">
<line x1="323" y1="460" x2="323" y2="112" stroke="#4D4D4D" stroke-width="16"/>
</g>
<g filter="url(#filter5_i)">
<line x1="238" y1="460" x2="238" y2="112" stroke="#4D4D4D" stroke-width="16"/>
</g>
<g filter="url(#filter6_i)">
<line x1="104" y1="247" x2="452" y2="247" stroke="#4D4D4D" stroke-width="16"/>
</g>
<g filter="url(#filter7_i)">
<line x1="104" y1="329" x2="452" y2="329" stroke="#4D4D4D" stroke-width="16"/>
</g>
<g filter="url(#filter8_di)">
<circle cx="278" cy="286" r="189.5" stroke="#4D4D4D" stroke-width="41"/>
</g>
<g filter="url(#filter9_i)">
<circle cx="278" cy="95" r="10" fill="#616161"/>
</g>
<g filter="url(#filter10_i)">
<circle cx="467" cy="286" r="10" fill="#616161"/>
</g>
<g filter="url(#filter11_i)">
<circle cx="88" cy="286" r="10" fill="#616161"/>
</g>
<g filter="url(#filter12_i)">
<circle cx="138" cy="157" r="10" fill="#616161"/>
</g>
<g filter="url(#filter13_i)">
<circle cx="418" cy="159" r="10" fill="#616161"/>
</g>
<g filter="url(#filter14_i)">
<circle cx="409" cy="419" r="10" fill="#616161"/>
</g>
<g filter="url(#filter15_i)">
<circle cx="147" cy="423" r="10" fill="#616161"/>
</g>
<g filter="url(#filter16_i)">
<circle cx="278" cy="475" r="10" fill="#616161"/>
</g>
<path d="M217.643 438.388C210.301 439.723 206.638 442.16 202.203 448.259C200.727 450.473 200.955 456.519 201.122 460.955C201.169 462.177 201.21 463.277 201.21 464.141V481.015L201.21 481.167C201.21 486.937 201.21 490.444 205.18 494.911C206.188 496.045 207.498 496.963 208.804 497.878C211.369 499.675 213.915 501.459 214.114 504.837C214.25 507.145 214.927 509.301 215.602 511.448C216.349 513.824 217.092 516.188 217.092 518.734C217.092 523.358 218.984 530.168 222.055 533.623C225.209 537.172 228.788 542.071 230.768 546.527C231.509 548.195 231.713 550.093 231.917 551.989C232.247 555.056 232.576 558.12 235.179 560.202C237.228 561.841 239.742 561.959 242.308 562.08C245.39 562.224 248.547 562.372 251.061 565.165C254.736 569.249 258.817 574.384 261.538 579.282C267.91 590.751 279.062 588.743 290.106 586.755C294.33 585.995 298.537 585.238 302.455 585.238C303.295 585.238 304.173 585.292 305.061 585.347C308.246 585.544 311.547 585.748 313.595 583.473C314.786 582.149 315.52 579.94 316.201 577.888C316.507 576.966 316.802 576.076 317.124 575.312C317.781 573.751 318.349 571.984 318.932 570.169C320.204 566.206 321.552 562.01 324.072 559.21C326.685 556.306 331.028 548.371 331.241 544.541C331.451 540.751 332.891 532.438 334.715 529.156C337.316 524.474 338.801 517.751 339.996 512.342C340.075 511.985 340.153 511.634 340.229 511.289C340.81 508.676 341.738 506.243 342.664 503.816C343.587 501.398 344.508 498.984 345.082 496.4C345.222 495.772 345.358 495.152 345.492 494.54C347.538 485.201 349.161 477.796 357.545 471.089C366.871 463.628 361.903 450.358 357.049 441.862C354.543 437.477 349.18 435.355 344.641 435.355C343.88 435.355 342.818 435.291 341.595 435.218C336.999 434.942 330.116 434.528 328.263 436.844C326.235 439.379 317.079 440.318 313.87 440.318C312.278 440.318 310.865 440.201 309.54 440.092C305.966 439.796 303.038 439.553 298.981 441.807C293.397 444.909 289.377 445.281 283.1 445.281C280.017 445.281 277.25 444.271 274.508 443.269C271.815 442.286 269.146 441.311 266.225 441.311C261.583 441.311 257.915 440.215 253.868 439.006C253.061 438.765 252.239 438.52 251.392 438.278C245.809 436.683 240.628 436.348 234.462 436.348C228.86 436.348 223.431 437.335 217.998 438.324C217.88 438.345 217.761 438.367 217.643 438.388Z" fill="url(#paint1_radial)" fill-opacity="0.94"/>
<path d="M217.643 438.388C210.301 439.723 206.638 442.16 202.203 448.259C200.727 450.473 200.955 456.519 201.122 460.955C201.169 462.177 201.21 463.277 201.21 464.141V481.015L201.21 481.167C201.21 486.937 201.21 490.444 205.18 494.911C206.188 496.045 207.498 496.963 208.804 497.878C211.369 499.675 213.915 501.459 214.114 504.837C214.25 507.145 214.927 509.301 215.602 511.448C216.349 513.824 217.092 516.188 217.092 518.734C217.092 523.358 218.984 530.168 222.055 533.623C225.209 537.172 228.788 542.071 230.768 546.527C231.509 548.195 231.713 550.093 231.917 551.989C232.247 555.056 232.576 558.12 235.179 560.202C237.228 561.841 239.742 561.959 242.308 562.08C245.39 562.224 248.547 562.372 251.061 565.165C254.736 569.249 258.817 574.384 261.538 579.282C267.91 590.751 279.062 588.743 290.106 586.755C294.33 585.995 298.537 585.238 302.455 585.238C303.295 585.238 304.173 585.292 305.061 585.347C308.246 585.544 311.547 585.748 313.595 583.473C314.786 582.149 315.52 579.94 316.201 577.888C316.507 576.966 316.802 576.076 317.124 575.312C317.781 573.751 318.349 571.984 318.932 570.169C320.204 566.206 321.552 562.01 324.072 559.21C326.685 556.306 331.028 548.371 331.241 544.541C331.451 540.751 332.891 532.438 334.715 529.156C337.316 524.474 338.801 517.751 339.996 512.342C340.075 511.985 340.153 511.634 340.229 511.289C340.81 508.676 341.738 506.243 342.664 503.816C343.587 501.398 344.508 498.984 345.082 496.4C345.222 495.772 345.358 495.152 345.492 494.54C347.538 485.201 349.161 477.796 357.545 471.089C366.871 463.628 361.903 450.358 357.049 441.862C354.543 437.477 349.18 435.355 344.641 435.355C343.88 435.355 342.818 435.291 341.595 435.218C336.999 434.942 330.116 434.528 328.263 436.844C326.235 439.379 317.079 440.318 313.87 440.318C312.278 440.318 310.865 440.201 309.54 440.092C305.966 439.796 303.038 439.553 298.981 441.807C293.397 444.909 289.377 445.281 283.1 445.281C280.017 445.281 277.25 444.271 274.508 443.269C271.815 442.286 269.146 441.311 266.225 441.311C261.583 441.311 257.915 440.215 253.868 439.006C253.061 438.765 252.239 438.52 251.392 438.278C245.809 436.683 240.628 436.348 234.462 436.348C228.86 436.348 223.431 437.335 217.998 438.324C217.88 438.345 217.761 438.367 217.643 438.388Z" stroke="#616161"/>
<g filter="url(#filter17_i)">
<rect x="16" y="367" width="162" height="522" rx="24" transform="rotate(-90 16 367)" fill="url(#paint2_linear)"/>
</g>
<rect x="16.5" y="366.5" width="161" height="521" rx="23.5" transform="rotate(-90 16.5 366.5)" stroke="url(#paint3_linear)" stroke-opacity="0.4"/>
<g filter="url(#filter18_i)">
<circle cx="45" cy="233" r="10" fill="#616161"/>
</g>
<g filter="url(#filter19_i)">
<circle cx="45" cy="337" r="10" fill="#616161"/>
</g>
<g filter="url(#filter20_i)">
<circle cx="511" cy="337" r="10" fill="#757575"/>
</g>
<g filter="url(#filter21_i)">
<circle cx="511" cy="233" r="10" fill="#757575"/>
</g>
<g filter="url(#filter22_i)">
<mask id="mask0" mask-type="alpha" maskUnits="userSpaceOnUse" x="58" y="264" width="442" height="43">
<path d="M67.3195 291.472V306H58.8234V264.766H74.9094C78.0057 264.766 80.7245 265.332 83.0656 266.465C85.4257 267.598 87.2382 269.212 88.5031 271.308C89.7681 273.384 90.4006 275.754 90.4006 278.416C90.4006 282.456 89.0129 285.647 86.2375 287.988C83.481 290.311 79.6578 291.472 74.7678 291.472H67.3195ZM67.3195 284.59H74.9094C77.1561 284.59 78.8648 284.061 80.0354 283.004C81.2248 281.947 81.8195 280.436 81.8195 278.473C81.8195 276.452 81.2248 274.819 80.0354 273.573C78.8459 272.327 77.2033 271.685 75.1076 271.647H67.3195V284.59ZM108.197 306H99.701V264.766H108.197V306ZM134.263 278.982L141.995 264.766H151.765L139.757 285.213L152.077 306H142.193L134.263 291.557L126.333 306H116.45L128.769 285.213L116.761 264.766H126.532L134.263 278.982ZM190.915 292.265C190.594 296.701 188.951 300.194 185.987 302.743C183.042 305.292 179.153 306.566 174.319 306.566C169.033 306.566 164.87 304.792 161.83 301.242C158.809 297.674 157.299 292.784 157.299 286.572V284.052C157.299 280.087 157.997 276.594 159.395 273.573C160.792 270.552 162.784 268.24 165.37 266.635C167.976 265.011 170.996 264.199 174.433 264.199C179.19 264.199 183.023 265.474 185.931 268.022C188.838 270.571 190.519 274.149 190.972 278.756H182.476C182.268 276.094 181.522 274.168 180.238 272.979C178.973 271.77 177.038 271.166 174.433 271.166C171.601 271.166 169.477 272.186 168.061 274.225C166.663 276.245 165.946 279.388 165.908 283.655V286.771C165.908 291.226 166.578 294.483 167.919 296.541C169.278 298.599 171.412 299.628 174.319 299.628C176.944 299.628 178.898 299.033 180.182 297.844C181.484 296.635 182.23 294.776 182.419 292.265H190.915ZM233.265 286.317C233.265 290.377 232.548 293.936 231.113 296.994C229.678 300.053 227.62 302.413 224.939 304.074C222.277 305.736 219.218 306.566 215.763 306.566C212.346 306.566 209.297 305.745 206.616 304.103C203.935 302.46 201.858 300.119 200.385 297.079C198.913 294.021 198.167 290.509 198.148 286.544V284.505C198.148 280.446 198.875 276.877 200.329 273.8C201.801 270.703 203.869 268.334 206.531 266.691C209.212 265.03 212.27 264.199 215.707 264.199C219.143 264.199 222.192 265.03 224.854 266.691C227.535 268.334 229.602 270.703 231.056 273.8C232.529 276.877 233.265 280.436 233.265 284.477V286.317ZM224.656 284.448C224.656 280.125 223.882 276.84 222.334 274.593C220.785 272.346 218.576 271.223 215.707 271.223C212.856 271.223 210.656 272.337 209.108 274.564C207.56 276.773 206.776 280.021 206.757 284.307V286.317C206.757 290.528 207.532 293.794 209.08 296.116C210.628 298.438 212.856 299.6 215.763 299.6C218.614 299.6 220.804 298.486 222.334 296.258C223.863 294.011 224.637 290.745 224.656 286.459V284.448ZM250.835 299.175H268.875V306H242.339V264.766H250.835V299.175ZM285.171 299.175H303.211V306H276.675V264.766H285.171V299.175ZM335.819 288.13H319.506V299.175H338.651V306H311.01V264.766H338.594V271.647H319.506V281.475H335.819V288.13ZM378.905 292.265C378.584 296.701 376.942 300.194 373.978 302.743C371.032 305.292 367.143 306.566 362.31 306.566C357.023 306.566 352.86 304.792 349.82 301.242C346.799 297.674 345.289 292.784 345.289 286.572V284.052C345.289 280.087 345.988 276.594 347.385 273.573C348.782 270.552 350.774 268.24 353.36 266.635C355.966 265.011 358.987 264.199 362.423 264.199C367.181 264.199 371.013 265.474 373.921 268.022C376.828 270.571 378.509 274.149 378.962 278.756H370.466C370.258 276.094 369.512 274.168 368.229 272.979C366.964 271.77 365.028 271.166 362.423 271.166C359.591 271.166 357.467 272.186 356.051 274.225C354.654 276.245 353.936 279.388 353.898 283.655V286.771C353.898 291.226 354.569 294.483 355.909 296.541C357.269 298.599 359.402 299.628 362.31 299.628C364.934 299.628 366.888 299.033 368.172 297.844C369.475 296.635 370.22 294.776 370.409 292.265H378.905ZM417.574 271.647H404.943V306H396.447V271.647H383.986V264.766H417.574V271.647ZM458.423 286.317C458.423 290.377 457.706 293.936 456.271 296.994C454.836 300.053 452.778 302.413 450.097 304.074C447.435 305.736 444.376 306.566 440.921 306.566C437.504 306.566 434.455 305.745 431.774 304.103C429.093 302.46 427.016 300.119 425.543 297.079C424.07 294.021 423.325 290.509 423.306 286.544V284.505C423.306 280.446 424.033 276.877 425.487 273.8C426.959 270.703 429.027 268.334 431.689 266.691C434.37 265.03 437.428 264.199 440.864 264.199C444.301 264.199 447.35 265.03 450.012 266.691C452.693 268.334 454.76 270.703 456.214 273.8C457.687 276.877 458.423 280.436 458.423 284.477V286.317ZM449.814 284.448C449.814 280.125 449.04 276.84 447.491 274.593C445.943 272.346 443.734 271.223 440.864 271.223C438.014 271.223 435.814 272.337 434.266 274.564C432.718 276.773 431.934 280.021 431.915 284.307V286.317C431.915 290.528 432.689 293.794 434.237 296.116C435.786 298.438 438.014 299.6 440.921 299.6C443.772 299.6 445.962 298.486 447.491 296.258C449.021 294.011 449.795 290.745 449.814 286.459V284.448ZM482.762 290.905H475.993V306H467.497V264.766H482.818C487.689 264.766 491.446 265.851 494.09 268.022C496.733 270.194 498.055 273.262 498.055 277.227C498.055 280.04 497.441 282.39 496.214 284.278C495.005 286.147 493.165 287.639 490.691 288.753L499.612 305.604V306H490.493L482.762 290.905ZM475.993 284.023H482.846C484.98 284.023 486.632 283.485 487.803 282.409C488.973 281.314 489.558 279.813 489.558 277.906C489.558 275.962 489.001 274.432 487.888 273.318C486.792 272.204 485.103 271.647 482.818 271.647H475.993V284.023Z" fill="#FF7595"/>
</mask>
<g mask="url(#mask0)">
<g filter="url(#filter23_ddi)">
<rect x="16" y="367" width="162" height="522" rx="24" transform="rotate(-90 16 367)" fill="url(#paint4_linear)"/>
<rect x="16.5" y="366.5" width="161" height="521" rx="23.5" transform="rotate(-90 16.5 366.5)" stroke="url(#paint5_linear)" stroke-opacity="0.4"/>
</g>
</g>
</g>
<defs>
<filter id="filter0_i" x="151.5" y="147.999" width="18" height="296.002" filterUnits="userSpaceOnUse" color-interpolation-filters="sRGB">
<feFlood flood-opacity="0" result="BackgroundImageFix"/>
<feBlend mode="normal" in="SourceGraphic" in2="BackgroundImageFix" result="shape"/>
<feColorMatrix in="SourceAlpha" type="matrix" values="0 0 0 0 0 0 0 0 0 0 0 0 0 0 0 0 0 0 127 0" result="hardAlpha"/>
<feOffset dx="2" dy="2"/>
<feGaussianBlur stdDeviation="4"/>
<feComposite in2="hardAlpha" operator="arithmetic" k2="-1" k3="1"/>
<feColorMatrix type="matrix" values="0 0 0 0 0.247059 0 0 0 0 0.247059 0 0 0 0 0.247059 0 0 0 1 0"/>
<feBlend mode="normal" in2="shape" result="effect1_innerShadow"/>
</filter>
<filter id="filter1_i" x="131" y="159" width="296.002" height="18" filterUnits="userSpaceOnUse" color-interpolation-filters="sRGB">
<feFlood flood-opacity="0" result="BackgroundImageFix"/>
<feBlend mode="normal" in="SourceGraphic" in2="BackgroundImageFix" result="shape"/>
<feColorMatrix in="SourceAlpha" type="matrix" values="0 0 0 0 0 0 0 0 0 0 0 0 0 0 0 0 0 0 127 0" result="hardAlpha"/>
<feOffset dx="2" dy="2"/>
<feGaussianBlur stdDeviation="4"/>
<feComposite in2="hardAlpha" operator="arithmetic" k2="-1" k3="1"/>
<feColorMatrix type="matrix" values="0 0 0 0 0.247059 0 0 0 0 0.247059 0 0 0 0 0.247059 0 0 0 1 0"/>
<feBlend mode="normal" in2="shape" result="effect1_innerShadow"/>
</filter>
<filter id="filter2_i" x="131" y="399" width="296.002" height="18" filterUnits="userSpaceOnUse" color-interpolation-filters="sRGB">
<feFlood flood-opacity="0" result="BackgroundImageFix"/>
<feBlend mode="normal" in="SourceGraphic" in2="BackgroundImageFix" result="shape"/>
<feColorMatrix in="SourceAlpha" type="matrix" values="0 0 0 0 0 0 0 0 0 0 0 0 0 0 0 0 0 0 127 0" result="hardAlpha"/>
<feOffset dx="2" dy="2"/>
<feGaussianBlur stdDeviation="4"/>
<feComposite in2="hardAlpha" operator="arithmetic" k2="-1" k3="1"/>
<feColorMatrix type="matrix" values="0 0 0 0 0.247059 0 0 0 0 0.247059 0 0 0 0 0.247059 0 0 0 1 0"/>
<feBlend mode="normal" in2="shape" result="effect1_innerShadow"/>
</filter>
<filter id="filter3_i" x="393.5" y="147.999" width="18" height="296.002" filterUnits="userSpaceOnUse" color-interpolation-filters="sRGB">
<feFlood flood-opacity="0" result="BackgroundImageFix"/>
<feBlend mode="normal" in="SourceGraphic" in2="BackgroundImageFix" result="shape"/>
<feColorMatrix in="SourceAlpha" type="matrix" values="0 0 0 0 0 0 0 0 0 0 0 0 0 0 0 0 0 0 127 0" result="hardAlpha"/>
<feOffset dx="2" dy="2"/>
<feGaussianBlur stdDeviation="4"/>
<feComposite in2="hardAlpha" operator="arithmetic" k2="-1" k3="1"/>
<feColorMatrix type="matrix" values="0 0 0 0 0.247059 0 0 0 0 0.247059 0 0 0 0 0.247059 0 0 0 1 0"/>
<feBlend mode="normal" in2="shape" result="effect1_innerShadow"/>
</filter>
<filter id="filter4_i" x="315" y="112" width="18" height="350" filterUnits="userSpaceOnUse" color-interpolation-filters="sRGB">
<feFlood flood-opacity="0" result="BackgroundImageFix"/>
<feBlend mode="normal" in="SourceGraphic" in2="BackgroundImageFix" result="shape"/>
<feColorMatrix in="SourceAlpha" type="matrix" values="0 0 0 0 0 0 0 0 0 0 0 0 0 0 0 0 0 0 127 0" result="hardAlpha"/>
<feOffset dx="2" dy="2"/>
<feGaussianBlur stdDeviation="4"/>
<feComposite in2="hardAlpha" operator="arithmetic" k2="-1" k3="1"/>
<feColorMatrix type="matrix" values="0 0 0 0 0.247059 0 0 0 0 0.247059 0 0 0 0 0.247059 0 0 0 1 0"/>
<feBlend mode="normal" in2="shape" result="effect1_innerShadow"/>
</filter>
<filter id="filter5_i" x="230" y="112" width="18" height="350" filterUnits="userSpaceOnUse" color-interpolation-filters="sRGB">
<feFlood flood-opacity="0" result="BackgroundImageFix"/>
<feBlend mode="normal" in="SourceGraphic" in2="BackgroundImageFix" result="shape"/>
<feColorMatrix in="SourceAlpha" type="matrix" values="0 0 0 0 0 0 0 0 0 0 0 0 0 0 0 0 0 0 127 0" result="hardAlpha"/>
<feOffset dx="2" dy="2"/>
<feGaussianBlur stdDeviation="4"/>
<feComposite in2="hardAlpha" operator="arithmetic" k2="-1" k3="1"/>
<feColorMatrix type="matrix" values="0 0 0 0 0.247059 0 0 0 0 0.247059 0 0 0 0 0.247059 0 0 0 1 0"/>
<feBlend mode="normal" in2="shape" result="effect1_innerShadow"/>
</filter>
<filter id="filter6_i" x="104" y="239" width="350" height="18" filterUnits="userSpaceOnUse" color-interpolation-filters="sRGB">
<feFlood flood-opacity="0" result="BackgroundImageFix"/>
<feBlend mode="normal" in="SourceGraphic" in2="BackgroundImageFix" result="shape"/>
<feColorMatrix in="SourceAlpha" type="matrix" values="0 0 0 0 0 0 0 0 0 0 0 0 0 0 0 0 0 0 127 0" result="hardAlpha"/>
<feOffset dx="2" dy="2"/>
<feGaussianBlur stdDeviation="4"/>
<feComposite in2="hardAlpha" operator="arithmetic" k2="-1" k3="1"/>
<feColorMatrix type="matrix" values="0 0 0 0 0.247059 0 0 0 0 0.247059 0 0 0 0 0.247059 0 0 0 1 0"/>
<feBlend mode="normal" in2="shape" result="effect1_innerShadow"/>
</filter>
<filter id="filter7_i" x="104" y="321" width="350" height="18" filterUnits="userSpaceOnUse" color-interpolation-filters="sRGB">
<feFlood flood-opacity="0" result="BackgroundImageFix"/>
<feBlend mode="normal" in="SourceGraphic" in2="BackgroundImageFix" result="shape"/>
<feColorMatrix in="SourceAlpha" type="matrix" values="0 0 0 0 0 0 0 0 0 0 0 0 0 0 0 0 0 0 127 0" result="hardAlpha"/>
<feOffset dx="2" dy="2"/>
<feGaussianBlur stdDeviation="4"/>
<feComposite in2="hardAlpha" operator="arithmetic" k2="-1" k3="1"/>
<feColorMatrix type="matrix" values="0 0 0 0 0.247059 0 0 0 0 0.247059 0 0 0 0 0.247059 0 0 0 1 0"/>
<feBlend mode="normal" in2="shape" result="effect1_innerShadow"/>
</filter>
<filter id="filter8_di" x="0" y="0" width="532" height="532" filterUnits="userSpaceOnUse" color-interpolation-filters="sRGB">
<feFlood flood-opacity="0" result="BackgroundImageFix"/>
<feColorMatrix in="SourceAlpha" type="matrix" values="0 0 0 0 0 0 0 0 0 0 0 0 0 0 0 0 0 0 127 0"/>
<feOffset dx="-12" dy="-20"/>
<feGaussianBlur stdDeviation="28"/>
<feColorMatrix type="matrix" values="0 0 0 0 0.909 0 0 0 0 0.93084 0 0 0 0 0.951 0 0 0 0.05 0"/>
<feBlend mode="normal" in2="BackgroundImageFix" result="effect1_dropShadow"/>
<feBlend mode="normal" in="SourceGraphic" in2="effect1_dropShadow" result="shape"/>
<feColorMatrix in="SourceAlpha" type="matrix" values="0 0 0 0 0 0 0 0 0 0 0 0 0 0 0 0 0 0 127 0" result="hardAlpha"/>
<feOffset dx="-16" dy="-6"/>
<feGaussianBlur stdDeviation="40"/>
<feComposite in2="hardAlpha" operator="arithmetic" k2="-1" k3="1"/>
<feColorMatrix type="matrix" values="0 0 0 0 0.974 0 0 0 0 0.974889 0 0 0 0 0.976 0 0 0 0.03 0"/>
<feBlend mode="normal" in2="shape" result="effect2_innerShadow"/>
</filter>
<filter id="filter9_i" x="268" y="85" width="22" height="22" filterUnits="userSpaceOnUse" color-interpolation-filters="sRGB">
<feFlood flood-opacity="0" result="BackgroundImageFix"/>
<feBlend mode="normal" in="SourceGraphic" in2="BackgroundImageFix" result="shape"/>
<feColorMatrix in="SourceAlpha" type="matrix" values="0 0 0 0 0 0 0 0 0 0 0 0 0 0 0 0 0 0 127 0" result="hardAlpha"/>
<feOffset dx="2" dy="2"/>
<feGaussianBlur stdDeviation="2"/>
<feComposite in2="hardAlpha" operator="arithmetic" k2="-1" k3="1"/>
<feColorMatrix type="matrix" values="0 0 0 0 0.247059 0 0 0 0 0.247059 0 0 0 0 0.247059 0 0 0 1 0"/>
<feBlend mode="normal" in2="shape" result="effect1_innerShadow"/>
</filter>
<filter id="filter10_i" x="457" y="276" width="22" height="22" filterUnits="userSpaceOnUse" color-interpolation-filters="sRGB">
<feFlood flood-opacity="0" result="BackgroundImageFix"/>
<feBlend mode="normal" in="SourceGraphic" in2="BackgroundImageFix" result="shape"/>
<feColorMatrix in="SourceAlpha" type="matrix" values="0 0 0 0 0 0 0 0 0 0 0 0 0 0 0 0 0 0 127 0" result="hardAlpha"/>
<feOffset dx="2" dy="2"/>
<feGaussianBlur stdDeviation="2"/>
<feComposite in2="hardAlpha" operator="arithmetic" k2="-1" k3="1"/>
<feColorMatrix type="matrix" values="0 0 0 0 0.247059 0 0 0 0 0.247059 0 0 0 0 0.247059 0 0 0 1 0"/>
<feBlend mode="normal" in2="shape" result="effect1_innerShadow"/>
</filter>
<filter id="filter11_i" x="78" y="276" width="22" height="22" filterUnits="userSpaceOnUse" color-interpolation-filters="sRGB">
<feFlood flood-opacity="0" result="BackgroundImageFix"/>
<feBlend mode="normal" in="SourceGraphic" in2="BackgroundImageFix" result="shape"/>
<feColorMatrix in="SourceAlpha" type="matrix" values="0 0 0 0 0 0 0 0 0 0 0 0 0 0 0 0 0 0 127 0" result="hardAlpha"/>
<feOffset dx="2" dy="2"/>
<feGaussianBlur stdDeviation="2"/>
<feComposite in2="hardAlpha" operator="arithmetic" k2="-1" k3="1"/>
<feColorMatrix type="matrix" values="0 0 0 0 0.247059 0 0 0 0 0.247059 0 0 0 0 0.247059 0 0 0 1 0"/>
<feBlend mode="normal" in2="shape" result="effect1_innerShadow"/>
</filter>
<filter id="filter12_i" x="128" y="147" width="22" height="22" filterUnits="userSpaceOnUse" color-interpolation-filters="sRGB">
<feFlood flood-opacity="0" result="BackgroundImageFix"/>
<feBlend mode="normal" in="SourceGraphic" in2="BackgroundImageFix" result="shape"/>
<feColorMatrix in="SourceAlpha" type="matrix" values="0 0 0 0 0 0 0 0 0 0 0 0 0 0 0 0 0 0 127 0" result="hardAlpha"/>
<feOffset dx="2" dy="2"/>
<feGaussianBlur stdDeviation="2"/>
<feComposite in2="hardAlpha" operator="arithmetic" k2="-1" k3="1"/>
<feColorMatrix type="matrix" values="0 0 0 0 0.247059 0 0 0 0 0.247059 0 0 0 0 0.247059 0 0 0 1 0"/>
<feBlend mode="normal" in2="shape" result="effect1_innerShadow"/>
</filter>
<filter id="filter13_i" x="408" y="149" width="22" height="22" filterUnits="userSpaceOnUse" color-interpolation-filters="sRGB">
<feFlood flood-opacity="0" result="BackgroundImageFix"/>
<feBlend mode="normal" in="SourceGraphic" in2="BackgroundImageFix" result="shape"/>
<feColorMatrix in="SourceAlpha" type="matrix" values="0 0 0 0 0 0 0 0 0 0 0 0 0 0 0 0 0 0 127 0" result="hardAlpha"/>
<feOffset dx="2" dy="2"/>
<feGaussianBlur stdDeviation="2"/>
<feComposite in2="hardAlpha" operator="arithmetic" k2="-1" k3="1"/>
<feColorMatrix type="matrix" values="0 0 0 0 0.247059 0 0 0 0 0.247059 0 0 0 0 0.247059 0 0 0 1 0"/>
<feBlend mode="normal" in2="shape" result="effect1_innerShadow"/>
</filter>
<filter id="filter14_i" x="399" y="409" width="22" height="22" filterUnits="userSpaceOnUse" color-interpolation-filters="sRGB">
<feFlood flood-opacity="0" result="BackgroundImageFix"/>
<feBlend mode="normal" in="SourceGraphic" in2="BackgroundImageFix" result="shape"/>
<feColorMatrix in="SourceAlpha" type="matrix" values="0 0 0 0 0 0 0 0 0 0 0 0 0 0 0 0 0 0 127 0" result="hardAlpha"/>
<feOffset dx="2" dy="2"/>
<feGaussianBlur stdDeviation="2"/>
<feComposite in2="hardAlpha" operator="arithmetic" k2="-1" k3="1"/>
<feColorMatrix type="matrix" values="0 0 0 0 0.247059 0 0 0 0 0.247059 0 0 0 0 0.247059 0 0 0 1 0"/>
<feBlend mode="normal" in2="shape" result="effect1_innerShadow"/>
</filter>
<filter id="filter15_i" x="137" y="413" width="22" height="22" filterUnits="userSpaceOnUse" color-interpolation-filters="sRGB">
<feFlood flood-opacity="0" result="BackgroundImageFix"/>
<feBlend mode="normal" in="SourceGraphic" in2="BackgroundImageFix" result="shape"/>
<feColorMatrix in="SourceAlpha" type="matrix" values="0 0 0 0 0 0 0 0 0 0 0 0 0 0 0 0 0 0 127 0" result="hardAlpha"/>
<feOffset dx="2" dy="2"/>
<feGaussianBlur stdDeviation="2"/>
<feComposite in2="hardAlpha" operator="arithmetic" k2="-1" k3="1"/>
<feColorMatrix type="matrix" values="0 0 0 0 0.247059 0 0 0 0 0.247059 0 0 0 0 0.247059 0 0 0 1 0"/>
<feBlend mode="normal" in2="shape" result="effect1_innerShadow"/>
</filter>
<filter id="filter16_i" x="268" y="465" width="22" height="22" filterUnits="userSpaceOnUse" color-interpolation-filters="sRGB">
<feFlood flood-opacity="0" result="BackgroundImageFix"/>
<feBlend mode="normal" in="SourceGraphic" in2="BackgroundImageFix" result="shape"/>
<feColorMatrix in="SourceAlpha" type="matrix" values="0 0 0 0 0 0 0 0 0 0 0 0 0 0 0 0 0 0 127 0" result="hardAlpha"/>
<feOffset dx="2" dy="2"/>
<feGaussianBlur stdDeviation="2"/>
<feComposite in2="hardAlpha" operator="arithmetic" k2="-1" k3="1"/>
<feColorMatrix type="matrix" values="0 0 0 0 0.247059 0 0 0 0 0.247059 0 0 0 0 0.247059 0 0 0 1 0"/>
<feBlend mode="normal" in2="shape" result="effect1_innerShadow"/>
</filter>
<filter id="filter17_i" x="0" y="199" width="538" height="168" filterUnits="userSpaceOnUse" color-interpolation-filters="sRGB">
<feFlood flood-opacity="0" result="BackgroundImageFix"/>
<feBlend mode="normal" in="SourceGraphic" in2="BackgroundImageFix" result="shape"/>
<feColorMatrix in="SourceAlpha" type="matrix" values="0 0 0 0 0 0 0 0 0 0 0 0 0 0 0 0 0 0 127 0" result="hardAlpha"/>
<feOffset dx="-16" dy="-6"/>
<feGaussianBlur stdDeviation="40"/>
<feComposite in2="hardAlpha" operator="arithmetic" k2="-1" k3="1"/>
<feColorMatrix type="matrix" values="0 0 0 0 0.974 0 0 0 0 0.974889 0 0 0 0 0.976 0 0 0 0.03 0"/>
<feBlend mode="normal" in2="shape" result="effect1_innerShadow"/>
</filter>
<filter id="filter18_i" x="35" y="223" width="22" height="22" filterUnits="userSpaceOnUse" color-interpolation-filters="sRGB">
<feFlood flood-opacity="0" result="BackgroundImageFix"/>
<feBlend mode="normal" in="SourceGraphic" in2="BackgroundImageFix" result="shape"/>
<feColorMatrix in="SourceAlpha" type="matrix" values="0 0 0 0 0 0 0 0 0 0 0 0 0 0 0 0 0 0 127 0" result="hardAlpha"/>
<feOffset dx="2" dy="2"/>
<feGaussianBlur stdDeviation="2"/>
<feComposite in2="hardAlpha" operator="arithmetic" k2="-1" k3="1"/>
<feColorMatrix type="matrix" values="0 0 0 0 0.247059 0 0 0 0 0.247059 0 0 0 0 0.247059 0 0 0 1 0"/>
<feBlend mode="normal" in2="shape" result="effect1_innerShadow"/>
</filter>
<filter id="filter19_i" x="35" y="327" width="22" height="22" filterUnits="userSpaceOnUse" color-interpolation-filters="sRGB">
<feFlood flood-opacity="0" result="BackgroundImageFix"/>
<feBlend mode="normal" in="SourceGraphic" in2="BackgroundImageFix" result="shape"/>
<feColorMatrix in="SourceAlpha" type="matrix" values="0 0 0 0 0 0 0 0 0 0 0 0 0 0 0 0 0 0 127 0" result="hardAlpha"/>
<feOffset dx="2" dy="2"/>
<feGaussianBlur stdDeviation="2"/>
<feComposite in2="hardAlpha" operator="arithmetic" k2="-1" k3="1"/>
<feColorMatrix type="matrix" values="0 0 0 0 0.247059 0 0 0 0 0.247059 0 0 0 0 0.247059 0 0 0 1 0"/>
<feBlend mode="normal" in2="shape" result="effect1_innerShadow"/>
</filter>
<filter id="filter20_i" x="501" y="327" width="22" height="22" filterUnits="userSpaceOnUse" color-interpolation-filters="sRGB">
<feFlood flood-opacity="0" result="BackgroundImageFix"/>
<feBlend mode="normal" in="SourceGraphic" in2="BackgroundImageFix" result="shape"/>
<feColorMatrix in="SourceAlpha" type="matrix" values="0 0 0 0 0 0 0 0 0 0 0 0 0 0 0 0 0 0 127 0" result="hardAlpha"/>
<feOffset dx="2" dy="2"/>
<feGaussianBlur stdDeviation="2"/>
<feComposite in2="hardAlpha" operator="arithmetic" k2="-1" k3="1"/>
<feColorMatrix type="matrix" values="0 0 0 0 0.247059 0 0 0 0 0.247059 0 0 0 0 0.247059 0 0 0 1 0"/>
<feBlend mode="normal" in2="shape" result="effect1_innerShadow"/>
</filter>
<filter id="filter21_i" x="501" y="223" width="22" height="22" filterUnits="userSpaceOnUse" color-interpolation-filters="sRGB">
<feFlood flood-opacity="0" result="BackgroundImageFix"/>
<feBlend mode="normal" in="SourceGraphic" in2="BackgroundImageFix" result="shape"/>
<feColorMatrix in="SourceAlpha" type="matrix" values="0 0 0 0 0 0 0 0 0 0 0 0 0 0 0 0 0 0 127 0" result="hardAlpha"/>
<feOffset dx="2" dy="2"/>
<feGaussianBlur stdDeviation="2"/>
<feComposite in2="hardAlpha" operator="arithmetic" k2="-1" k3="1"/>
<feColorMatrix type="matrix" values="0 0 0 0 0.247059 0 0 0 0 0.247059 0 0 0 0 0.247059 0 0 0 1 0"/>
<feBlend mode="normal" in2="shape" result="effect1_innerShadow"/>
</filter>
<filter id="filter22_i" x="58.8235" y="264.199" width="442.789" height="44.3672" filterUnits="userSpaceOnUse" color-interpolation-filters="sRGB">
<feFlood flood-opacity="0" result="BackgroundImageFix"/>
<feBlend mode="normal" in="SourceGraphic" in2="BackgroundImageFix" result="shape"/>
<feColorMatrix in="SourceAlpha" type="matrix" values="0 0 0 0 0 0 0 0 0 0 0 0 0 0 0 0 0 0 127 0" result="hardAlpha"/>
<feOffset dx="2" dy="2"/>
<feGaussianBlur stdDeviation="2"/>
<feComposite in2="hardAlpha" operator="arithmetic" k2="-1" k3="1"/>
<feColorMatrix type="matrix" values="0 0 0 0 0.247059 0 0 0 0 0.247059 0 0 0 0 0.247059 0 0 0 1 0"/>
<feBlend mode="normal" in2="shape" result="effect1_innerShadow"/>
</filter>
<filter id="filter23_ddi" x="-52" y="129" width="690" height="314" filterUnits="userSpaceOnUse" color-interpolation-filters="sRGB">
<feFlood flood-opacity="0" result="BackgroundImageFix"/>
<feColorMatrix in="SourceAlpha" type="matrix" values="0 0 0 0 0 0 0 0 0 0 0 0 0 0 0 0 0 0 127 0"/>
<feOffset dx="-12" dy="-20"/>
<feGaussianBlur stdDeviation="28"/>
<feColorMatrix type="matrix" values="0 0 0 0 0.909 0 0 0 0 0.93084 0 0 0 0 0.951 0 0 0 0.05 0"/>
<feBlend mode="normal" in2="BackgroundImageFix" result="effect1_dropShadow"/>
<feColorMatrix in="SourceAlpha" type="matrix" values="0 0 0 0 0 0 0 0 0 0 0 0 0 0 0 0 0 0 127 0"/>
<feOffset dx="36" dy="12"/>
<feGaussianBlur stdDeviation="32"/>
<feColorMatrix type="matrix" values="0 0 0 0 0.294118 0 0 0 0 0.294118 0 0 0 0 0.294118 0 0 0 1 0"/>
<feBlend mode="normal" in2="effect1_dropShadow" result="effect2_dropShadow"/>
<feBlend mode="normal" in="SourceGraphic" in2="effect2_dropShadow" result="shape"/>
<feColorMatrix in="SourceAlpha" type="matrix" values="0 0 0 0 0 0 0 0 0 0 0 0 0 0 0 0 0 0 127 0" result="hardAlpha"/>
<feOffset dx="-16" dy="-6"/>
<feGaussianBlur stdDeviation="40"/>
<feComposite in2="hardAlpha" operator="arithmetic" k2="-1" k3="1"/>
<feColorMatrix type="matrix" values="0 0 0 0 0.974 0 0 0 0 0.974889 0 0 0 0 0.976 0 0 0 0.03 0"/>
<feBlend mode="normal" in2="shape" result="effect3_innerShadow"/>
</filter>
<radialGradient id="paint0_radial" cx="0" cy="0" r="1" gradientUnits="userSpaceOnUse" gradientTransform="translate(268.5 533.5) rotate(-80.4948) scale(439.028)">
<stop offset="0.182292" stop-color="#D400F7"/>
<stop offset="0.411458" stop-color="#FF3DC9"/>
<stop offset="0.854167" stop-color="#FFEA29"/>
</radialGradient>
<radialGradient id="paint1_radial" cx="0" cy="0" r="1" gradientUnits="userSpaceOnUse" gradientTransform="translate(269.554 611.502) rotate(-78.28) scale(174.951 169.642)">
<stop stop-color="#FF2929"/>
<stop offset="0.640784" stop-color="#FF3DC9"/>
<stop offset="0.994792" stop-color="#D400F7"/>
</radialGradient>
<linearGradient id="paint2_linear" x1="196.804" y1="-5.85714" x2="-500.416" y2="360.742" gradientUnits="userSpaceOnUse">
<stop offset="0.226599" stop-color="#4C4C4C"/>
<stop offset="0.697917" stop-color="#616161"/>
</linearGradient>
<linearGradient id="paint3_linear" x1="163.293" y1="342.961" x2="-58.4281" y2="375.071" gradientUnits="userSpaceOnUse">
<stop offset="0.0709612" stop-color="#484848"/>
<stop offset="0.507086" stop-color="#5F5F5F"/>
<stop offset="1" stop-color="#3F3F3F"/>
</linearGradient>
<linearGradient id="paint4_linear" x1="-68.5" y1="654" x2="108" y2="616.5" gradientUnits="userSpaceOnUse">
<stop stop-color="#616161"/>
<stop offset="1" stop-color="#4D4D4D"/>
</linearGradient>
<linearGradient id="paint5_linear" x1="163.293" y1="342.961" x2="-58.4281" y2="375.071" gradientUnits="userSpaceOnUse">
<stop offset="0.0709612" stop-color="#484848"/>
<stop offset="0.507086" stop-color="#5F5F5F"/>
<stop offset="1" stop-color="#3F3F3F"/>
</linearGradient>
</defs>
</svg>
