<svg width="538" height="589" viewBox="0 0 538 589" fill="none" xmlns="http://www.w3.org/2000/svg">
<circle cx="278" cy="286" r="189.5" fill="url(#paint0_radial)" stroke="#4D4D4D" stroke-width="41"/>
<g filter="url(#filter0_i)">
<line x1="159.5" y1="442.001" x2="159.5" y2="147.999" stroke="#4D4D4D" stroke-width="16"/>
</g>
<g filter="url(#filter1_i)">
<line x1="131" y1="167" x2="425.002" y2="167" stroke="#4D4D4D" stroke-width="16"/>
</g>
<g filter="url(#filter2_i)">
<line x1="131" y1="407" x2="425.002" y2="407" stroke="#4D4D4D" stroke-width="16"/>
</g>
<g filter="url(#filter3_i)">
<line x1="401.5" y1="442.001" x2="401.5" y2="147.999" stroke="#4D4D4D" stroke-width="16"/>
</g>
<g filter="url(#filter4_i)">
<line x1="323" y1="460" x2="323" y2="112" stroke="#4D4D4D" stroke-width="16"/>
</g>
<g filter="url(#filter5_i)">
<line x1="238" y1="460" x2="238" y2="112" stroke="#4D4D4D" stroke-width="16"/>
</g>
<g filter="url(#filter6_i)">
<line x1="104" y1="247" x2="452" y2="247" stroke="#4D4D4D" stroke-width="16"/>
</g>
<g filter="url(#filter7_i)">
<line x1="104" y1="329" x2="452" y2="329" stroke="#4D4D4D" stroke-width="16"/>
</g>
<g filter="url(#filter8_di)">
<circle cx="278" cy="286" r="189.5" stroke="#4D4D4D" stroke-width="41"/>
</g>
<g filter="url(#filter9_i)">
<circle cx="278" cy="95" r="10" fill="#616161"/>
</g>
<g filter="url(#filter10_i)">
<circle cx="467" cy="286" r="10" fill="#616161"/>
</g>
<g filter="url(#filter11_i)">
<circle cx="88" cy="286" r="10" fill="#616161"/>
</g>
<g filter="url(#filter12_i)">
<circle cx="138" cy="157" r="10" fill="#616161"/>
</g>
<g filter="url(#filter13_i)">
<circle cx="418" cy="159" r="10" fill="#616161"/>
</g>
<g filter="url(#filter14_i)">
<circle cx="409" cy="419" r="10" fill="#616161"/>
</g>
<g filter="url(#filter15_i)">
<circle cx="147" cy="423" r="10" fill="#616161"/>
</g>
<g filter="url(#filter16_i)">
<circle cx="278" cy="475" r="10" fill="#616161"/>
</g>
<path d="M217.643 438.388C210.301 439.723 206.638 442.16 202.203 448.259C200.727 450.473 200.955 456.519 201.122 460.955C201.169 462.177 201.21 463.277 201.21 464.141V481.015L201.21 481.167C201.21 486.937 201.21 490.444 205.18 494.911C206.188 496.045 207.498 496.963 208.804 497.878C211.369 499.675 213.915 501.459 214.114 504.837C214.25 507.145 214.927 509.301 215.602 511.448C216.349 513.824 217.092 516.188 217.092 518.734C217.092 523.358 218.984 530.168 222.055 533.623C225.209 537.172 228.788 542.071 230.768 546.527C231.509 548.195 231.713 550.093 231.917 551.989C232.247 555.056 232.576 558.12 235.179 560.202C237.228 561.841 239.742 561.959 242.308 562.08C245.39 562.224 248.547 562.372 251.061 565.165C254.736 569.249 258.817 574.384 261.538 579.282C267.91 590.751 279.062 588.743 290.106 586.755C294.33 585.995 298.537 585.238 302.455 585.238C303.295 585.238 304.173 585.292 305.061 585.347C308.246 585.544 311.547 585.748 313.595 583.473C314.786 582.149 315.52 579.94 316.201 577.888C316.507 576.966 316.802 576.076 317.124 575.312C317.781 573.751 318.349 571.984 318.932 570.169C320.204 566.206 321.552 562.01 324.072 559.21C326.685 556.306 331.028 548.371 331.241 544.541C331.451 540.751 332.891 532.438 334.715 529.156C337.316 524.474 338.801 517.751 339.996 512.342C340.075 511.985 340.153 511.634 340.229 511.289C340.81 508.676 341.738 506.243 342.664 503.816C343.587 501.398 344.508 498.984 345.082 496.4C345.222 495.772 345.358 495.152 345.492 494.54C347.538 485.201 349.161 477.796 357.545 471.089C366.871 463.628 361.903 450.358 357.049 441.862C354.543 437.477 349.18 435.355 344.641 435.355C343.88 435.355 342.818 435.291 341.595 435.218C336.999 434.942 330.116 434.528 328.263 436.844C326.235 439.379 317.079 440.318 313.87 440.318C312.278 440.318 310.865 440.201 309.54 440.092C305.966 439.796 303.038 439.553 298.981 441.807C293.397 444.909 289.377 445.281 283.1 445.281C280.017 445.281 277.25 444.271 274.508 443.269C271.815 442.286 269.146 441.311 266.225 441.311C261.583 441.311 257.915 440.215 253.868 439.006C253.061 438.765 252.239 438.52 251.392 438.278C245.809 436.683 240.628 436.348 234.462 436.348C228.86 436.348 223.431 437.335 217.998 438.324C217.88 438.345 217.761 438.367 217.643 438.388Z" fill="url(#paint1_radial)" fill-opacity="0.94"/>
<path d="M217.643 438.388C210.301 439.723 206.638 442.16 202.203 448.259C200.727 450.473 200.955 456.519 201.122 460.955C201.169 462.177 201.21 463.277 201.21 464.141V481.015L201.21 481.167C201.21 486.937 201.21 490.444 205.18 494.911C206.188 496.045 207.498 496.963 208.804 497.878C211.369 499.675 213.915 501.459 214.114 504.837C214.25 507.145 214.927 509.301 215.602 511.448C216.349 513.824 217.092 516.188 217.092 518.734C217.092 523.358 218.984 530.168 222.055 533.623C225.209 537.172 228.788 542.071 230.768 546.527C231.509 548.195 231.713 550.093 231.917 551.989C232.247 555.056 232.576 558.12 235.179 560.202C237.228 561.841 239.742 561.959 242.308 562.08C245.39 562.224 248.547 562.372 251.061 565.165C254.736 569.249 258.817 574.384 261.538 579.282C267.91 590.751 279.062 588.743 290.106 586.755C294.33 585.995 298.537 585.238 302.455 585.238C303.295 585.238 304.173 585.292 305.061 585.347C308.246 585.544 311.547 585.748 313.595 583.473C314.786 582.149 315.52 579.94 316.201 577.888C316.507 576.966 316.802 576.076 317.124 575.312C317.781 573.751 318.349 571.984 318.932 570.169C320.204 566.206 321.552 562.01 324.072 559.21C326.685 556.306 331.028 548.371 331.241 544.541C331.451 540.751 332.891 532.438 334.715 529.156C337.316 524.474 338.801 517.751 339.996 512.342C340.075 511.985 340.153 511.634 340.229 511.289C340.81 508.676 341.738 506.243 342.664 503.816C343.587 501.398 344.508 498.984 345.082 496.4C345.222 495.772 345.358 495.152 345.492 494.54C347.538 485.201 349.161 477.796 357.545 471.089C366.871 463.628 361.903 450.358 357.049 441.862C354.543 437.477 349.18 435.355 344.641 435.355C343.88 435.355 342.818 435.291 341.595 435.218C336.999 434.942 330.116 434.528 328.263 436.844C326.235 439.379 317.079 440.318 313.87 440.318C312.278 440.318 310.865 440.201 309.54 440.092C305.966 439.796 303.038 439.553 298.981 441.807C293.397 444.909 289.377 445.281 283.1 445.281C280.017 445.281 277.25 444.271 274.508 443.269C271.815 442.286 269.146 441.311 266.225 441.311C261.583 441.311 257.915 440.215 253.868 439.006C253.061 438.765 252.239 438.52 251.392 438.278C245.809 436.683 240.628 436.348 234.462 436.348C228.86 436.348 223.431 437.335 217.998 438.324C217.88 438.345 217.761 438.367 217.643 438.388Z" stroke="#616161"/>
<defs>
<filter id="filter0_i" x="151.5" y="147.999" width="18" height="296.002" filterUnits="userSpaceOnUse" color-interpolation-filters="sRGB">
<feFlood flood-opacity="0" result="BackgroundImageFix"/>
<feBlend mode="normal" in="SourceGraphic" in2="BackgroundImageFix" result="shape"/>
<feColorMatrix in="SourceAlpha" type="matrix" values="0 0 0 0 0 0 0 0 0 0 0 0 0 0 0 0 0 0 127 0" result="hardAlpha"/>
<feOffset dx="2" dy="2"/>
<feGaussianBlur stdDeviation="4"/>
<feComposite in2="hardAlpha" operator="arithmetic" k2="-1" k3="1"/>
<feColorMatrix type="matrix" values="0 0 0 0 0.247059 0 0 0 0 0.247059 0 0 0 0 0.247059 0 0 0 1 0"/>
<feBlend mode="normal" in2="shape" result="effect1_innerShadow"/>
</filter>
<filter id="filter1_i" x="131" y="159" width="296.002" height="18" filterUnits="userSpaceOnUse" color-interpolation-filters="sRGB">
<feFlood flood-opacity="0" result="BackgroundImageFix"/>
<feBlend mode="normal" in="SourceGraphic" in2="BackgroundImageFix" result="shape"/>
<feColorMatrix in="SourceAlpha" type="matrix" values="0 0 0 0 0 0 0 0 0 0 0 0 0 0 0 0 0 0 127 0" result="hardAlpha"/>
<feOffset dx="2" dy="2"/>
<feGaussianBlur stdDeviation="4"/>
<feComposite in2="hardAlpha" operator="arithmetic" k2="-1" k3="1"/>
<feColorMatrix type="matrix" values="0 0 0 0 0.247059 0 0 0 0 0.247059 0 0 0 0 0.247059 0 0 0 1 0"/>
<feBlend mode="normal" in2="shape" result="effect1_innerShadow"/>
</filter>
<filter id="filter2_i" x="131" y="399" width="296.002" height="18" filterUnits="userSpaceOnUse" color-interpolation-filters="sRGB">
<feFlood flood-opacity="0" result="BackgroundImageFix"/>
<feBlend mode="normal" in="SourceGraphic" in2="BackgroundImageFix" result="shape"/>
<feColorMatrix in="SourceAlpha" type="matrix" values="0 0 0 0 0 0 0 0 0 0 0 0 0 0 0 0 0 0 127 0" result="hardAlpha"/>
<feOffset dx="2" dy="2"/>
<feGaussianBlur stdDeviation="4"/>
<feComposite in2="hardAlpha" operator="arithmetic" k2="-1" k3="1"/>
<feColorMatrix type="matrix" values="0 0 0 0 0.247059 0 0 0 0 0.247059 0 0 0 0 0.247059 0 0 0 1 0"/>
<feBlend mode="normal" in2="shape" result="effect1_innerShadow"/>
</filter>
<filter id="filter3_i" x="393.5" y="147.999" width="18" height="296.002" filterUnits="userSpaceOnUse" color-interpolation-filters="sRGB">
<feFlood flood-opacity="0" result="BackgroundImageFix"/>
<feBlend mode="normal" in="SourceGraphic" in2="BackgroundImageFix" result="shape"/>
<feColorMatrix in="SourceAlpha" type="matrix" values="0 0 0 0 0 0 0 0 0 0 0 0 0 0 0 0 0 0 127 0" result="hardAlpha"/>
<feOffset dx="2" dy="2"/>
<feGaussianBlur stdDeviation="4"/>
<feComposite in2="hardAlpha" operator="arithmetic" k2="-1" k3="1"/>
<feColorMatrix type="matrix" values="0 0 0 0 0.247059 0 0 0 0 0.247059 0 0 0 0 0.247059 0 0 0 1 0"/>
<feBlend mode="normal" in2="shape" result="effect1_innerShadow"/>
</filter>
<filter id="filter4_i" x="315" y="112" width="18" height="350" filterUnits="userSpaceOnUse" color-interpolation-filters="sRGB">
<feFlood flood-opacity="0" result="BackgroundImageFix"/>
<feBlend mode="normal" in="SourceGraphic" in2="BackgroundImageFix" result="shape"/>
<feColorMatrix in="SourceAlpha" type="matrix" values="0 0 0 0 0 0 0 0 0 0 0 0 0 0 0 0 0 0 127 0" result="hardAlpha"/>
<feOffset dx="2" dy="2"/>
<feGaussianBlur stdDeviation="4"/>
<feComposite in2="hardAlpha" operator="arithmetic" k2="-1" k3="1"/>
<feColorMatrix type="matrix" values="0 0 0 0 0.247059 0 0 0 0 0.247059 0 0 0 0 0.247059 0 0 0 1 0"/>
<feBlend mode="normal" in2="shape" result="effect1_innerShadow"/>
</filter>
<filter id="filter5_i" x="230" y="112" width="18" height="350" filterUnits="userSpaceOnUse" color-interpolation-filters="sRGB">
<feFlood flood-opacity="0" result="BackgroundImageFix"/>
<feBlend mode="normal" in="SourceGraphic" in2="BackgroundImageFix" result="shape"/>
<feColorMatrix in="SourceAlpha" type="matrix" values="0 0 0 0 0 0 0 0 0 0 0 0 0 0 0 0 0 0 127 0" result="hardAlpha"/>
<feOffset dx="2" dy="2"/>
<feGaussianBlur stdDeviation="4"/>
<feComposite in2="hardAlpha" operator="arithmetic" k2="-1" k3="1"/>
<feColorMatrix type="matrix" values="0 0 0 0 0.247059 0 0 0 0 0.247059 0 0 0 0 0.247059 0 0 0 1 0"/>
<feBlend mode="normal" in2="shape" result="effect1_innerShadow"/>
</filter>
<filter id="filter6_i" x="104" y="239" width="350" height="18" filterUnits="userSpaceOnUse" color-interpolation-filters="sRGB">
<feFlood flood-opacity="0" result="BackgroundImageFix"/>
<feBlend mode="normal" in="SourceGraphic" in2="BackgroundImageFix" result="shape"/>
<feColorMatrix in="SourceAlpha" type="matrix" values="0 0 0 0 0 0 0 0 0 0 0 0 0 0 0 0 0 0 127 0" result="hardAlpha"/>
<feOffset dx="2" dy="2"/>
<feGaussianBlur stdDeviation="4"/>
<feComposite in2="hardAlpha" operator="arithmetic" k2="-1" k3="1"/>
<feColorMatrix type="matrix" values="0 0 0 0 0.247059 0 0 0 0 0.247059 0 0 0 0 0.247059 0 0 0 1 0"/>
<feBlend mode="normal" in2="shape" result="effect1_innerShadow"/>
</filter>
<filter id="filter7_i" x="104" y="321" width="350" height="18" filterUnits="userSpaceOnUse" color-interpolation-filters="sRGB">
<feFlood flood-opacity="0" result="BackgroundImageFix"/>
<feBlend mode="normal" in="SourceGraphic" in2="BackgroundImageFix" result="shape"/>
<feColorMatrix in="SourceAlpha" type="matrix" values="0 0 0 0 0 0 0 0 0 0 0 0 0 0 0 0 0 0 127 0" result="hardAlpha"/>
<feOffset dx="2" dy="2"/>
<feGaussianBlur stdDeviation="4"/>
<feComposite in2="hardAlpha" operator="arithmetic" k2="-1" k3="1"/>
<feColorMatrix type="matrix" values="0 0 0 0 0.247059 0 0 0 0 0.247059 0 0 0 0 0.247059 0 0 0 1 0"/>
<feBlend mode="normal" in2="shape" result="effect1_innerShadow"/>
</filter>
<filter id="filter8_di" x="0" y="0" width="532" height="532" filterUnits="userSpaceOnUse" color-interpolation-filters="sRGB">
<feFlood flood-opacity="0" result="BackgroundImageFix"/>
<feColorMatrix in="SourceAlpha" type="matrix" values="0 0 0 0 0 0 0 0 0 0 0 0 0 0 0 0 0 0 127 0"/>
<feOffset dx="-12" dy="-20"/>
<feGaussianBlur stdDeviation="28"/>
<feColorMatrix type="matrix" values="0 0 0 0 0.909 0 0 0 0 0.93084 0 0 0 0 0.951 0 0 0 0.05 0"/>
<feBlend mode="normal" in2="BackgroundImageFix" result="effect1_dropShadow"/>
<feBlend mode="normal" in="SourceGraphic" in2="effect1_dropShadow" result="shape"/>
<feColorMatrix in="SourceAlpha" type="matrix" values="0 0 0 0 0 0 0 0 0 0 0 0 0 0 0 0 0 0 127 0" result="hardAlpha"/>
<feOffset dx="-16" dy="-6"/>
<feGaussianBlur stdDeviation="40"/>
<feComposite in2="hardAlpha" operator="arithmetic" k2="-1" k3="1"/>
<feColorMatrix type="matrix" values="0 0 0 0 0.974 0 0 0 0 0.974889 0 0 0 0 0.976 0 0 0 0.03 0"/>
<feBlend mode="normal" in2="shape" result="effect2_innerShadow"/>
</filter>
<filter id="filter9_i" x="268" y="85" width="22" height="22" filterUnits="userSpaceOnUse" color-interpolation-filters="sRGB">
<feFlood flood-opacity="0" result="BackgroundImageFix"/>
<feBlend mode="normal" in="SourceGraphic" in2="BackgroundImageFix" result="shape"/>
<feColorMatrix in="SourceAlpha" type="matrix" values="0 0 0 0 0 0 0 0 0 0 0 0 0 0 0 0 0 0 127 0" result="hardAlpha"/>
<feOffset dx="2" dy="2"/>
<feGaussianBlur stdDeviation="2"/>
<feComposite in2="hardAlpha" operator="arithmetic" k2="-1" k3="1"/>
<feColorMatrix type="matrix" values="0 0 0 0 0.247059 0 0 0 0 0.247059 0 0 0 0 0.247059 0 0 0 1 0"/>
<feBlend mode="normal" in2="shape" result="effect1_innerShadow"/>
</filter>
<filter id="filter10_i" x="457" y="276" width="22" height="22" filterUnits="userSpaceOnUse" color-interpolation-filters="sRGB">
<feFlood flood-opacity="0" result="BackgroundImageFix"/>
<feBlend mode="normal" in="SourceGraphic" in2="BackgroundImageFix" result="shape"/>
<feColorMatrix in="SourceAlpha" type="matrix" values="0 0 0 0 0 0 0 0 0 0 0 0 0 0 0 0 0 0 127 0" result="hardAlpha"/>
<feOffset dx="2" dy="2"/>
<feGaussianBlur stdDeviation="2"/>
<feComposite in2="hardAlpha" operator="arithmetic" k2="-1" k3="1"/>
<feColorMatrix type="matrix" values="0 0 0 0 0.247059 0 0 0 0 0.247059 0 0 0 0 0.247059 0 0 0 1 0"/>
<feBlend mode="normal" in2="shape" result="effect1_innerShadow"/>
</filter>
<filter id="filter11_i" x="78" y="276" width="22" height="22" filterUnits="userSpaceOnUse" color-interpolation-filters="sRGB">
<feFlood flood-opacity="0" result="BackgroundImageFix"/>
<feBlend mode="normal" in="SourceGraphic" in2="BackgroundImageFix" result="shape"/>
<feColorMatrix in="SourceAlpha" type="matrix" values="0 0 0 0 0 0 0 0 0 0 0 0 0 0 0 0 0 0 127 0" result="hardAlpha"/>
<feOffset dx="2" dy="2"/>
<feGaussianBlur stdDeviation="2"/>
<feComposite in2="hardAlpha" operator="arithmetic" k2="-1" k3="1"/>
<feColorMatrix type="matrix" values="0 0 0 0 0.247059 0 0 0 0 0.247059 0 0 0 0 0.247059 0 0 0 1 0"/>
<feBlend mode="normal" in2="shape" result="effect1_innerShadow"/>
</filter>
<filter id="filter12_i" x="128" y="147" width="22" height="22" filterUnits="userSpaceOnUse" color-interpolation-filters="sRGB">
<feFlood flood-opacity="0" result="BackgroundImageFix"/>
<feBlend mode="normal" in="SourceGraphic" in2="BackgroundImageFix" result="shape"/>
<feColorMatrix in="SourceAlpha" type="matrix" values="0 0 0 0 0 0 0 0 0 0 0 0 0 0 0 0 0 0 127 0" result="hardAlpha"/>
<feOffset dx="2" dy="2"/>
<feGaussianBlur stdDeviation="2"/>
<feComposite in2="hardAlpha" operator="arithmetic" k2="-1" k3="1"/>
<feColorMatrix type="matrix" values="0 0 0 0 0.247059 0 0 0 0 0.247059 0 0 0 0 0.247059 0 0 0 1 0"/>
<feBlend mode="normal" in2="shape" result="effect1_innerShadow"/>
</filter>
<filter id="filter13_i" x="408" y="149" width="22" height="22" filterUnits="userSpaceOnUse" color-interpolation-filters="sRGB">
<feFlood flood-opacity="0" result="BackgroundImageFix"/>
<feBlend mode="normal" in="SourceGraphic" in2="BackgroundImageFix" result="shape"/>
<feColorMatrix in="SourceAlpha" type="matrix" values="0 0 0 0 0 0 0 0 0 0 0 0 0 0 0 0 0 0 127 0" result="hardAlpha"/>
<feOffset dx="2" dy="2"/>
<feGaussianBlur stdDeviation="2"/>
<feComposite in2="hardAlpha" operator="arithmetic" k2="-1" k3="1"/>
<feColorMatrix type="matrix" values="0 0 0 0 0.247059 0 0 0 0 0.247059 0 0 0 0 0.247059 0 0 0 1 0"/>
<feBlend mode="normal" in2="shape" result="effect1_innerShadow"/>
</filter>
<filter id="filter14_i" x="399" y="409" width="22" height="22" filterUnits="userSpaceOnUse" color-interpolation-filters="sRGB">
<feFlood flood-opacity="0" result="BackgroundImageFix"/>
<feBlend mode="normal" in="SourceGraphic" in2="BackgroundImageFix" result="shape"/>
<feColorMatrix in="SourceAlpha" type="matrix" values="0 0 0 0 0 0 0 0 0 0 0 0 0 0 0 0 0 0 127 0" result="hardAlpha"/>
<feOffset dx="2" dy="2"/>
<feGaussianBlur stdDeviation="2"/>
<feComposite in2="hardAlpha" operator="arithmetic" k2="-1" k3="1"/>
<feColorMatrix type="matrix" values="0 0 0 0 0.247059 0 0 0 0 0.247059 0 0 0 0 0.247059 0 0 0 1 0"/>
<feBlend mode="normal" in2="shape" result="effect1_innerShadow"/>
</filter>
<filter id="filter15_i" x="137" y="413" width="22" height="22" filterUnits="userSpaceOnUse" color-interpolation-filters="sRGB">
<feFlood flood-opacity="0" result="BackgroundImageFix"/>
<feBlend mode="normal" in="SourceGraphic" in2="BackgroundImageFix" result="shape"/>
<feColorMatrix in="SourceAlpha" type="matrix" values="0 0 0 0 0 0 0 0 0 0 0 0 0 0 0 0 0 0 127 0" result="hardAlpha"/>
<feOffset dx="2" dy="2"/>
<feGaussianBlur stdDeviation="2"/>
<feComposite in2="hardAlpha" operator="arithmetic" k2="-1" k3="1"/>
<feColorMatrix type="matrix" values="0 0 0 0 0.247059 0 0 0 0 0.247059 0 0 0 0 0.247059 0 0 0 1 0"/>
<feBlend mode="normal" in2="shape" result="effect1_innerShadow"/>
</filter>
<filter id="filter16_i" x="268" y="465" width="22" height="22" filterUnits="userSpaceOnUse" color-interpolation-filters="sRGB">
<feFlood flood-opacity="0" result="BackgroundImageFix"/>
<feBlend mode="normal" in="SourceGraphic" in2="BackgroundImageFix" result="shape"/>
<feColorMatrix in="SourceAlpha" type="matrix" values="0 0 0 0 0 0 0 0 0 0 0 0 0 0 0 0 0 0 127 0" result="hardAlpha"/>
<feOffset dx="2" dy="2"/>
<feGaussianBlur stdDeviation="2"/>
<feComposite in2="hardAlpha" operator="arithmetic" k2="-1" k3="1"/>
<feColorMatrix type="matrix" values="0 0 0 0 0.247059 0 0 0 0 0.247059 0 0 0 0 0.247059 0 0 0 1 0"/>
<feBlend mode="normal" in2="shape" result="effect1_innerShadow"/>
</filter>
<radialGradient id="paint0_radial" cx="0" cy="0" r="1" gradientUnits="userSpaceOnUse" gradientTransform="translate(268.5 533.5) rotate(-80.4948) scale(439.028)">
<stop offset="0.182292" stop-color="#D400F7"/>
<stop offset="0.411458" stop-color="#FF3DC9"/>
<stop offset="0.854167" stop-color="#FFEA29"/>
</radialGradient>
<radialGradient id="paint1_radial" cx="0" cy="0" r="1" gradientUnits="userSpaceOnUse" gradientTransform="translate(269.554 611.502) rotate(-78.28) scale(174.951 169.642)">
<stop stop-color="#FF2929"/>
<stop offset="0.640784" stop-color="#FF3DC9"/>
<stop offset="0.994792" stop-color="#D400F7"/>
</radialGradient>
</defs>
</svg>
