<svg width="538" height="589" viewBox="0 0 538 589" fill="none" xmlns="http://www.w3.org/2000/svg">
<circle cx="278" cy="286" r="189.5" fill="url(#paint0_radial)" stroke="#4D4D4D" stroke-width="41"/>
<g filter="url(#filter0_i)">
<line x1="159.5" y1="442.001" x2="159.5" y2="147.999" stroke="#4D4D4D" stroke-width="16"/>
</g>
<g filter="url(#filter1_i)">
<line x1="131" y1="167" x2="425.002" y2="167" stroke="#4D4D4D" stroke-width="16"/>
</g>
<g filter="url(#filter2_i)">
<line x1="131" y1="407" x2="425.002" y2="407" stroke="#4D4D4D" stroke-width="16"/>
</g>
<g filter="url(#filter3_i)">
<line x1="401.5" y1="442.001" x2="401.5" y2="147.999" stroke="#4D4D4D" stroke-width="16"/>
</g>
<g filter="url(#filter4_i)">
<line x1="323" y1="460" x2="323" y2="112" stroke="#4D4D4D" stroke-width="16"/>
</g>
<g filter="url(#filter5_i)">
<line x1="238" y1="460" x2="238" y2="112" stroke="#4D4D4D" stroke-width="16"/>
</g>
<g filter="url(#filter6_i)">
<line x1="104" y1="247" x2="452" y2="247" stroke="#4D4D4D" stroke-width="16"/>
</g>
<g filter="url(#filter7_i)">
<line x1="104" y1="329" x2="452" y2="329" stroke="#4D4D4D" stroke-width="16"/>
</g>
<g filter="url(#filter8_di)">
<circle cx="278" cy="286" r="189.5" stroke="#4D4D4D" stroke-width="41"/>
</g>
<g filter="url(#filter9_i)">
<circle cx="278" cy="95" r="10" fill="#616161"/>
</g>
<g filter="url(#filter10_i)">
<circle cx="467" cy="286" r="10" fill="#616161"/>
</g>
<g filter="url(#filter11_i)">
<circle cx="88" cy="286" r="10" fill="#616161"/>
</g>
<g filter="url(#filter12_i)">
<circle cx="138" cy="157" r="10" fill="#616161"/>
</g>
<g filter="url(#filter13_i)">
<circle cx="418" cy="159" r="10" fill="#616161"/>
</g>
<g filter="url(#filter14_i)">
<circle cx="409" cy="419" r="10" fill="#616161"/>
</g>
<g filter="url(#filter15_i)">
<circle cx="147" cy="423" r="10" fill="#616161"/>
</g>
<g filter="url(#filter16_i)">
<circle cx="278" cy="475" r="10" fill="#616161"/>
</g>
<path d="M217.643 438.388C210.301 439.723 206.638 442.16 202.203 448.259C200.727 450.473 200.955 456.519 201.122 460.955C201.169 462.177 201.21 463.277 201.21 464.141V481.015L201.21 481.167C201.21 486.937 201.21 490.444 205.18 494.911C206.188 496.045 207.498 496.963 208.804 497.878C211.369 499.675 213.915 501.459 214.114 504.837C214.25 507.145 214.927 509.301 215.602 511.448C216.349 513.824 217.092 516.188 217.092 518.734C217.092 523.358 218.984 530.168 222.055 533.623C225.209 537.172 228.788 542.071 230.768 546.527C231.509 548.195 231.713 550.093 231.917 551.989C232.247 555.056 232.576 558.12 235.179 560.202C237.228 561.841 239.742 561.959 242.308 562.08C245.39 562.224 248.547 562.372 251.061 565.165C254.736 569.249 258.817 574.384 261.538 579.282C267.91 590.751 279.062 588.743 290.106 586.755C294.33 585.995 298.537 585.238 302.455 585.238C303.295 585.238 304.173 585.292 305.061 585.347C308.246 585.544 311.547 585.748 313.595 583.473C314.786 582.149 315.52 579.94 316.201 577.888C316.507 576.966 316.802 576.076 317.124 575.312C317.781 573.751 318.349 571.984 318.932 570.169C320.204 566.206 321.552 562.01 324.072 559.21C326.685 556.306 331.028 548.371 331.241 544.541C331.451 540.751 332.891 532.438 334.715 529.156C337.316 524.474 338.801 517.751 339.996 512.342C340.075 511.985 340.153 511.634 340.229 511.289C340.81 508.676 341.738 506.243 342.664 503.816C343.587 501.398 344.508 498.984 345.082 496.4C345.222 495.772 345.358 495.152 345.492 494.54C347.538 485.201 349.161 477.796 357.545 471.089C366.871 463.628 361.903 450.358 357.049 441.862C354.543 437.477 349.18 435.355 344.641 435.355C343.88 435.355 342.818 435.291 341.595 435.218C336.999 434.942 330.116 434.528 328.263 436.844C326.235 439.379 317.079 440.318 313.87 440.318C312.278 440.318 310.865 440.201 309.54 440.092C305.966 439.796 303.038 439.553 298.981 441.807C293.397 444.909 289.377 445.281 283.1 445.281C280.017 445.281 277.25 444.271 274.508 443.269C271.815 442.286 269.146 441.311 266.225 441.311C261.583 441.311 257.915 440.215 253.868 439.006C253.061 438.765 252.239 438.52 251.392 438.278C245.809 436.683 240.628 436.348 234.462 436.348C228.86 436.348 223.431 437.335 217.998 438.324C217.88 438.345 217.761 438.367 217.643 438.388Z" fill="url(#paint1_radial)" fill-opacity="0.94"/>
<path d="M217.643 438.388C210.301 439.723 206.638 442.16 202.203 448.259C200.727 450.473 200.955 456.519 201.122 460.955C201.169 462.177 201.21 463.277 201.21 464.141V481.015L201.21 481.167C201.21 486.937 201.21 490.444 205.18 494.911C206.188 496.045 207.498 496.963 208.804 497.878C211.369 499.675 213.915 501.459 214.114 504.837C214.25 507.145 214.927 509.301 215.602 511.448C216.349 513.824 217.092 516.188 217.092 518.734C217.092 523.358 218.984 530.168 222.055 533.623C225.209 537.172 228.788 542.071 230.768 546.527C231.509 548.195 231.713 550.093 231.917 551.989C232.247 555.056 232.576 558.12 235.179 560.202C237.228 561.841 239.742 561.959 242.308 562.08C245.39 562.224 248.547 562.372 251.061 565.165C254.736 569.249 258.817 574.384 261.538 579.282C267.91 590.751 279.062 588.743 290.106 586.755C294.33 585.995 298.537 585.238 302.455 585.238C303.295 585.238 304.173 585.292 305.061 585.347C308.246 585.544 311.547 585.748 313.595 583.473C314.786 582.149 315.52 579.94 316.201 577.888C316.507 576.966 316.802 576.076 317.124 575.312C317.781 573.751 318.349 571.984 318.932 570.169C320.204 566.206 321.552 562.01 324.072 559.21C326.685 556.306 331.028 548.371 331.241 544.541C331.451 540.751 332.891 532.438 334.715 529.156C337.316 524.474 338.801 517.751 339.996 512.342C340.075 511.985 340.153 511.634 340.229 511.289C340.81 508.676 341.738 506.243 342.664 503.816C343.587 501.398 344.508 498.984 345.082 496.4C345.222 495.772 345.358 495.152 345.492 494.54C347.538 485.201 349.161 477.796 357.545 471.089C366.871 463.628 361.903 450.358 357.049 441.862C354.543 437.477 349.18 435.355 344.641 435.355C343.88 435.355 342.818 435.291 341.595 435.218C336.999 434.942 330.116 434.528 328.263 436.844C326.235 439.379 317.079 440.318 313.87 440.318C312.278 440.318 310.865 440.201 309.54 440.092C305.966 439.796 303.038 439.553 298.981 441.807C293.397 444.909 289.377 445.281 283.1 445.281C280.017 445.281 277.25 444.271 274.508 443.269C271.815 442.286 269.146 441.311 266.225 441.311C261.583 441.311 257.915 440.215 253.868 439.006C253.061 438.765 252.239 438.52 251.392 438.278C245.809 436.683 240.628 436.348 234.462 436.348C228.86 436.348 223.431 437.335 217.998 438.324C217.88 438.345 217.761 438.367 217.643 438.388Z" stroke="#616161"/>
<g filter="url(#filter17_i)">
<rect x="16" y="367" width="162" height="522" rx="24" transform="rotate(-90 16 367)" fill="url(#paint2_linear)"/>
</g>
<rect x="16.5" y="366.5" width="161" height="521" rx="23.5" transform="rotate(-90 16.5 366.5)" stroke="url(#paint3_linear)" stroke-opacity="0.4"/>
<g filter="url(#filter18_i)">
<circle cx="45" cy="233" r="10" fill="#616161"/>
</g>
<g filter="url(#filter19_i)">
<circle cx="45" cy="337" r="10" fill="#616161"/>
</g>
<g filter="url(#filter20_i)">
<circle cx="511" cy="337" r="10" fill="#757575"/>
</g>
<g filter="url(#filter21_i)">
<circle cx="511" cy="233" r="10" fill="#757575"/>
</g>
<g filter="url(#filter22_i)">
<mask id="mask0" mask-type="alpha" maskUnits="userSpaceOnUse" x="76" y="264" width="413" height="43">
<path d="M110.254 292.265C109.933 296.701 108.291 300.194 105.327 302.743C102.381 305.292 98.4919 306.566 93.6586 306.566C88.3721 306.566 84.2091 304.792 81.1693 301.242C78.1485 297.674 76.6381 292.784 76.6381 286.572V284.052C76.6381 280.087 77.3367 276.594 78.7338 273.573C80.1309 270.552 82.1228 268.24 84.7094 266.635C87.3148 265.011 90.3357 264.199 93.7719 264.199C98.5297 264.199 102.362 265.474 105.27 268.022C108.177 270.571 109.858 274.149 110.311 278.756H101.815C101.607 276.094 100.861 274.168 99.5775 272.979C98.3126 271.77 96.3773 271.166 93.7719 271.166C90.9398 271.166 88.8158 272.186 87.3998 274.225C86.0027 276.245 85.2852 279.388 85.2475 283.655V286.771C85.2475 291.226 85.9177 294.483 87.2582 296.541C88.6176 298.599 90.751 299.628 93.6586 299.628C96.2829 299.628 98.2371 299.033 99.5209 297.844C100.824 296.635 101.569 294.776 101.758 292.265H110.254ZM161.304 286.317C161.304 290.377 160.587 293.936 159.152 296.994C157.717 300.053 155.659 302.413 152.978 304.074C150.316 305.736 147.258 306.566 143.803 306.566C140.385 306.566 137.336 305.745 134.655 304.103C131.974 302.46 129.897 300.119 128.425 297.079C126.952 294.021 126.206 290.509 126.187 286.544V284.505C126.187 280.446 126.914 276.877 128.368 273.8C129.841 270.703 131.908 268.334 134.57 266.691C137.251 265.03 140.31 264.199 143.746 264.199C147.182 264.199 150.231 265.03 152.893 266.691C155.574 268.334 157.642 270.703 159.096 273.8C160.568 276.877 161.304 280.436 161.304 284.477V286.317ZM152.695 284.448C152.695 280.125 151.921 276.84 150.373 274.593C148.825 272.346 146.616 271.223 143.746 271.223C140.895 271.223 138.695 272.337 137.147 274.564C135.599 276.773 134.816 280.021 134.797 284.307V286.317C134.797 290.528 135.571 293.794 137.119 296.116C138.667 298.438 140.895 299.6 143.803 299.6C146.653 299.6 148.844 298.486 150.373 296.258C151.902 294.011 152.676 290.745 152.695 286.459V284.448ZM187.574 299.175H205.614V306H179.078V264.766H187.574V299.175ZM230.61 299.175H248.65V306H222.114V264.766H230.61V299.175ZM289.958 288.13H273.646V299.175H292.79V306H265.149V264.766H292.733V271.647H273.646V281.475H289.958V288.13ZM341.745 292.265C341.424 296.701 339.781 300.194 336.817 302.743C333.871 305.292 329.982 306.566 325.149 306.566C319.862 306.566 315.699 304.792 312.66 301.242C309.639 297.674 308.128 292.784 308.128 286.572V284.052C308.128 280.087 308.827 276.594 310.224 273.573C311.621 270.552 313.613 268.24 316.2 266.635C318.805 265.011 321.826 264.199 325.262 264.199C330.02 264.199 333.853 265.474 336.76 268.022C339.668 270.571 341.348 274.149 341.801 278.756H333.305C333.097 276.094 332.352 274.168 331.068 272.979C329.803 271.77 327.868 271.166 325.262 271.166C322.43 271.166 320.306 272.186 318.89 274.225C317.493 276.245 316.775 279.388 316.738 283.655V286.771C316.738 291.226 317.408 294.483 318.748 296.541C320.108 298.599 322.241 299.628 325.149 299.628C327.773 299.628 329.727 299.033 331.011 297.844C332.314 296.635 333.06 294.776 333.248 292.265H341.745ZM389.113 271.647H376.482V306H367.986V271.647H355.525V264.766H389.113V271.647ZM438.662 286.317C438.662 290.377 437.945 293.936 436.51 296.994C435.075 300.053 433.017 302.413 430.336 304.074C427.674 305.736 424.615 306.566 421.16 306.566C417.743 306.566 414.694 305.745 412.013 304.103C409.332 302.46 407.255 300.119 405.782 297.079C404.31 294.021 403.564 290.509 403.545 286.544V284.505C403.545 280.446 404.272 276.877 405.726 273.8C407.198 270.703 409.266 268.334 411.928 266.691C414.609 265.03 417.668 264.199 421.104 264.199C424.54 264.199 427.589 265.03 430.251 266.691C432.932 268.334 435 270.703 436.453 273.8C437.926 276.877 438.662 280.436 438.662 284.477V286.317ZM430.053 284.448C430.053 280.125 429.279 276.84 427.731 274.593C426.183 272.346 423.974 271.223 421.104 271.223C418.253 271.223 416.053 272.337 414.505 274.564C412.957 276.773 412.173 280.021 412.155 284.307V286.317C412.155 290.528 412.929 293.794 414.477 296.116C416.025 298.438 418.253 299.6 421.16 299.6C424.011 299.6 426.201 298.486 427.731 296.258C429.26 294.011 430.034 290.745 430.053 286.459V284.448ZM471.701 290.905H464.932V306H456.436V264.766H471.757C476.629 264.766 480.386 265.851 483.029 268.022C485.672 270.194 486.994 273.262 486.994 277.227C486.994 280.04 486.38 282.39 485.153 284.278C483.945 286.147 482.104 287.639 479.63 288.753L488.551 305.604V306H479.432L471.701 290.905ZM464.932 284.023H471.786C473.919 284.023 475.571 283.485 476.742 282.409C477.912 281.314 478.498 279.813 478.498 277.906C478.498 275.962 477.941 274.432 476.827 273.318C475.732 272.204 474.042 271.647 471.757 271.647H464.932V284.023Z" fill="#FF7595"/>
</mask>
<g mask="url(#mask0)">
<g filter="url(#filter23_ddi)">
<rect x="16" y="367" width="162" height="522" rx="24" transform="rotate(-90 16 367)" fill="url(#paint4_linear)"/>
<rect x="16.5" y="366.5" width="161" height="521" rx="23.5" transform="rotate(-90 16.5 366.5)" stroke="url(#paint5_linear)" stroke-opacity="0.4"/>
</g>
</g>
</g>
<defs>
<filter id="filter0_i" x="151.5" y="147.999" width="18" height="296.002" filterUnits="userSpaceOnUse" color-interpolation-filters="sRGB">
<feFlood flood-opacity="0" result="BackgroundImageFix"/>
<feBlend mode="normal" in="SourceGraphic" in2="BackgroundImageFix" result="shape"/>
<feColorMatrix in="SourceAlpha" type="matrix" values="0 0 0 0 0 0 0 0 0 0 0 0 0 0 0 0 0 0 127 0" result="hardAlpha"/>
<feOffset dx="2" dy="2"/>
<feGaussianBlur stdDeviation="4"/>
<feComposite in2="hardAlpha" operator="arithmetic" k2="-1" k3="1"/>
<feColorMatrix type="matrix" values="0 0 0 0 0.247059 0 0 0 0 0.247059 0 0 0 0 0.247059 0 0 0 1 0"/>
<feBlend mode="normal" in2="shape" result="effect1_innerShadow"/>
</filter>
<filter id="filter1_i" x="131" y="159" width="296.002" height="18" filterUnits="userSpaceOnUse" color-interpolation-filters="sRGB">
<feFlood flood-opacity="0" result="BackgroundImageFix"/>
<feBlend mode="normal" in="SourceGraphic" in2="BackgroundImageFix" result="shape"/>
<feColorMatrix in="SourceAlpha" type="matrix" values="0 0 0 0 0 0 0 0 0 0 0 0 0 0 0 0 0 0 127 0" result="hardAlpha"/>
<feOffset dx="2" dy="2"/>
<feGaussianBlur stdDeviation="4"/>
<feComposite in2="hardAlpha" operator="arithmetic" k2="-1" k3="1"/>
<feColorMatrix type="matrix" values="0 0 0 0 0.247059 0 0 0 0 0.247059 0 0 0 0 0.247059 0 0 0 1 0"/>
<feBlend mode="normal" in2="shape" result="effect1_innerShadow"/>
</filter>
<filter id="filter2_i" x="131" y="399" width="296.002" height="18" filterUnits="userSpaceOnUse" color-interpolation-filters="sRGB">
<feFlood flood-opacity="0" result="BackgroundImageFix"/>
<feBlend mode="normal" in="SourceGraphic" in2="BackgroundImageFix" result="shape"/>
<feColorMatrix in="SourceAlpha" type="matrix" values="0 0 0 0 0 0 0 0 0 0 0 0 0 0 0 0 0 0 127 0" result="hardAlpha"/>
<feOffset dx="2" dy="2"/>
<feGaussianBlur stdDeviation="4"/>
<feComposite in2="hardAlpha" operator="arithmetic" k2="-1" k3="1"/>
<feColorMatrix type="matrix" values="0 0 0 0 0.247059 0 0 0 0 0.247059 0 0 0 0 0.247059 0 0 0 1 0"/>
<feBlend mode="normal" in2="shape" result="effect1_innerShadow"/>
</filter>
<filter id="filter3_i" x="393.5" y="147.999" width="18" height="296.002" filterUnits="userSpaceOnUse" color-interpolation-filters="sRGB">
<feFlood flood-opacity="0" result="BackgroundImageFix"/>
<feBlend mode="normal" in="SourceGraphic" in2="BackgroundImageFix" result="shape"/>
<feColorMatrix in="SourceAlpha" type="matrix" values="0 0 0 0 0 0 0 0 0 0 0 0 0 0 0 0 0 0 127 0" result="hardAlpha"/>
<feOffset dx="2" dy="2"/>
<feGaussianBlur stdDeviation="4"/>
<feComposite in2="hardAlpha" operator="arithmetic" k2="-1" k3="1"/>
<feColorMatrix type="matrix" values="0 0 0 0 0.247059 0 0 0 0 0.247059 0 0 0 0 0.247059 0 0 0 1 0"/>
<feBlend mode="normal" in2="shape" result="effect1_innerShadow"/>
</filter>
<filter id="filter4_i" x="315" y="112" width="18" height="350" filterUnits="userSpaceOnUse" color-interpolation-filters="sRGB">
<feFlood flood-opacity="0" result="BackgroundImageFix"/>
<feBlend mode="normal" in="SourceGraphic" in2="BackgroundImageFix" result="shape"/>
<feColorMatrix in="SourceAlpha" type="matrix" values="0 0 0 0 0 0 0 0 0 0 0 0 0 0 0 0 0 0 127 0" result="hardAlpha"/>
<feOffset dx="2" dy="2"/>
<feGaussianBlur stdDeviation="4"/>
<feComposite in2="hardAlpha" operator="arithmetic" k2="-1" k3="1"/>
<feColorMatrix type="matrix" values="0 0 0 0 0.247059 0 0 0 0 0.247059 0 0 0 0 0.247059 0 0 0 1 0"/>
<feBlend mode="normal" in2="shape" result="effect1_innerShadow"/>
</filter>
<filter id="filter5_i" x="230" y="112" width="18" height="350" filterUnits="userSpaceOnUse" color-interpolation-filters="sRGB">
<feFlood flood-opacity="0" result="BackgroundImageFix"/>
<feBlend mode="normal" in="SourceGraphic" in2="BackgroundImageFix" result="shape"/>
<feColorMatrix in="SourceAlpha" type="matrix" values="0 0 0 0 0 0 0 0 0 0 0 0 0 0 0 0 0 0 127 0" result="hardAlpha"/>
<feOffset dx="2" dy="2"/>
<feGaussianBlur stdDeviation="4"/>
<feComposite in2="hardAlpha" operator="arithmetic" k2="-1" k3="1"/>
<feColorMatrix type="matrix" values="0 0 0 0 0.247059 0 0 0 0 0.247059 0 0 0 0 0.247059 0 0 0 1 0"/>
<feBlend mode="normal" in2="shape" result="effect1_innerShadow"/>
</filter>
<filter id="filter6_i" x="104" y="239" width="350" height="18" filterUnits="userSpaceOnUse" color-interpolation-filters="sRGB">
<feFlood flood-opacity="0" result="BackgroundImageFix"/>
<feBlend mode="normal" in="SourceGraphic" in2="BackgroundImageFix" result="shape"/>
<feColorMatrix in="SourceAlpha" type="matrix" values="0 0 0 0 0 0 0 0 0 0 0 0 0 0 0 0 0 0 127 0" result="hardAlpha"/>
<feOffset dx="2" dy="2"/>
<feGaussianBlur stdDeviation="4"/>
<feComposite in2="hardAlpha" operator="arithmetic" k2="-1" k3="1"/>
<feColorMatrix type="matrix" values="0 0 0 0 0.247059 0 0 0 0 0.247059 0 0 0 0 0.247059 0 0 0 1 0"/>
<feBlend mode="normal" in2="shape" result="effect1_innerShadow"/>
</filter>
<filter id="filter7_i" x="104" y="321" width="350" height="18" filterUnits="userSpaceOnUse" color-interpolation-filters="sRGB">
<feFlood flood-opacity="0" result="BackgroundImageFix"/>
<feBlend mode="normal" in="SourceGraphic" in2="BackgroundImageFix" result="shape"/>
<feColorMatrix in="SourceAlpha" type="matrix" values="0 0 0 0 0 0 0 0 0 0 0 0 0 0 0 0 0 0 127 0" result="hardAlpha"/>
<feOffset dx="2" dy="2"/>
<feGaussianBlur stdDeviation="4"/>
<feComposite in2="hardAlpha" operator="arithmetic" k2="-1" k3="1"/>
<feColorMatrix type="matrix" values="0 0 0 0 0.247059 0 0 0 0 0.247059 0 0 0 0 0.247059 0 0 0 1 0"/>
<feBlend mode="normal" in2="shape" result="effect1_innerShadow"/>
</filter>
<filter id="filter8_di" x="0" y="0" width="532" height="532" filterUnits="userSpaceOnUse" color-interpolation-filters="sRGB">
<feFlood flood-opacity="0" result="BackgroundImageFix"/>
<feColorMatrix in="SourceAlpha" type="matrix" values="0 0 0 0 0 0 0 0 0 0 0 0 0 0 0 0 0 0 127 0"/>
<feOffset dx="-12" dy="-20"/>
<feGaussianBlur stdDeviation="28"/>
<feColorMatrix type="matrix" values="0 0 0 0 0.909 0 0 0 0 0.93084 0 0 0 0 0.951 0 0 0 0.05 0"/>
<feBlend mode="normal" in2="BackgroundImageFix" result="effect1_dropShadow"/>
<feBlend mode="normal" in="SourceGraphic" in2="effect1_dropShadow" result="shape"/>
<feColorMatrix in="SourceAlpha" type="matrix" values="0 0 0 0 0 0 0 0 0 0 0 0 0 0 0 0 0 0 127 0" result="hardAlpha"/>
<feOffset dx="-16" dy="-6"/>
<feGaussianBlur stdDeviation="40"/>
<feComposite in2="hardAlpha" operator="arithmetic" k2="-1" k3="1"/>
<feColorMatrix type="matrix" values="0 0 0 0 0.974 0 0 0 0 0.974889 0 0 0 0 0.976 0 0 0 0.03 0"/>
<feBlend mode="normal" in2="shape" result="effect2_innerShadow"/>
</filter>
<filter id="filter9_i" x="268" y="85" width="22" height="22" filterUnits="userSpaceOnUse" color-interpolation-filters="sRGB">
<feFlood flood-opacity="0" result="BackgroundImageFix"/>
<feBlend mode="normal" in="SourceGraphic" in2="BackgroundImageFix" result="shape"/>
<feColorMatrix in="SourceAlpha" type="matrix" values="0 0 0 0 0 0 0 0 0 0 0 0 0 0 0 0 0 0 127 0" result="hardAlpha"/>
<feOffset dx="2" dy="2"/>
<feGaussianBlur stdDeviation="2"/>
<feComposite in2="hardAlpha" operator="arithmetic" k2="-1" k3="1"/>
<feColorMatrix type="matrix" values="0 0 0 0 0.247059 0 0 0 0 0.247059 0 0 0 0 0.247059 0 0 0 1 0"/>
<feBlend mode="normal" in2="shape" result="effect1_innerShadow"/>
</filter>
<filter id="filter10_i" x="457" y="276" width="22" height="22" filterUnits="userSpaceOnUse" color-interpolation-filters="sRGB">
<feFlood flood-opacity="0" result="BackgroundImageFix"/>
<feBlend mode="normal" in="SourceGraphic" in2="BackgroundImageFix" result="shape"/>
<feColorMatrix in="SourceAlpha" type="matrix" values="0 0 0 0 0 0 0 0 0 0 0 0 0 0 0 0 0 0 127 0" result="hardAlpha"/>
<feOffset dx="2" dy="2"/>
<feGaussianBlur stdDeviation="2"/>
<feComposite in2="hardAlpha" operator="arithmetic" k2="-1" k3="1"/>
<feColorMatrix type="matrix" values="0 0 0 0 0.247059 0 0 0 0 0.247059 0 0 0 0 0.247059 0 0 0 1 0"/>
<feBlend mode="normal" in2="shape" result="effect1_innerShadow"/>
</filter>
<filter id="filter11_i" x="78" y="276" width="22" height="22" filterUnits="userSpaceOnUse" color-interpolation-filters="sRGB">
<feFlood flood-opacity="0" result="BackgroundImageFix"/>
<feBlend mode="normal" in="SourceGraphic" in2="BackgroundImageFix" result="shape"/>
<feColorMatrix in="SourceAlpha" type="matrix" values="0 0 0 0 0 0 0 0 0 0 0 0 0 0 0 0 0 0 127 0" result="hardAlpha"/>
<feOffset dx="2" dy="2"/>
<feGaussianBlur stdDeviation="2"/>
<feComposite in2="hardAlpha" operator="arithmetic" k2="-1" k3="1"/>
<feColorMatrix type="matrix" values="0 0 0 0 0.247059 0 0 0 0 0.247059 0 0 0 0 0.247059 0 0 0 1 0"/>
<feBlend mode="normal" in2="shape" result="effect1_innerShadow"/>
</filter>
<filter id="filter12_i" x="128" y="147" width="22" height="22" filterUnits="userSpaceOnUse" color-interpolation-filters="sRGB">
<feFlood flood-opacity="0" result="BackgroundImageFix"/>
<feBlend mode="normal" in="SourceGraphic" in2="BackgroundImageFix" result="shape"/>
<feColorMatrix in="SourceAlpha" type="matrix" values="0 0 0 0 0 0 0 0 0 0 0 0 0 0 0 0 0 0 127 0" result="hardAlpha"/>
<feOffset dx="2" dy="2"/>
<feGaussianBlur stdDeviation="2"/>
<feComposite in2="hardAlpha" operator="arithmetic" k2="-1" k3="1"/>
<feColorMatrix type="matrix" values="0 0 0 0 0.247059 0 0 0 0 0.247059 0 0 0 0 0.247059 0 0 0 1 0"/>
<feBlend mode="normal" in2="shape" result="effect1_innerShadow"/>
</filter>
<filter id="filter13_i" x="408" y="149" width="22" height="22" filterUnits="userSpaceOnUse" color-interpolation-filters="sRGB">
<feFlood flood-opacity="0" result="BackgroundImageFix"/>
<feBlend mode="normal" in="SourceGraphic" in2="BackgroundImageFix" result="shape"/>
<feColorMatrix in="SourceAlpha" type="matrix" values="0 0 0 0 0 0 0 0 0 0 0 0 0 0 0 0 0 0 127 0" result="hardAlpha"/>
<feOffset dx="2" dy="2"/>
<feGaussianBlur stdDeviation="2"/>
<feComposite in2="hardAlpha" operator="arithmetic" k2="-1" k3="1"/>
<feColorMatrix type="matrix" values="0 0 0 0 0.247059 0 0 0 0 0.247059 0 0 0 0 0.247059 0 0 0 1 0"/>
<feBlend mode="normal" in2="shape" result="effect1_innerShadow"/>
</filter>
<filter id="filter14_i" x="399" y="409" width="22" height="22" filterUnits="userSpaceOnUse" color-interpolation-filters="sRGB">
<feFlood flood-opacity="0" result="BackgroundImageFix"/>
<feBlend mode="normal" in="SourceGraphic" in2="BackgroundImageFix" result="shape"/>
<feColorMatrix in="SourceAlpha" type="matrix" values="0 0 0 0 0 0 0 0 0 0 0 0 0 0 0 0 0 0 127 0" result="hardAlpha"/>
<feOffset dx="2" dy="2"/>
<feGaussianBlur stdDeviation="2"/>
<feComposite in2="hardAlpha" operator="arithmetic" k2="-1" k3="1"/>
<feColorMatrix type="matrix" values="0 0 0 0 0.247059 0 0 0 0 0.247059 0 0 0 0 0.247059 0 0 0 1 0"/>
<feBlend mode="normal" in2="shape" result="effect1_innerShadow"/>
</filter>
<filter id="filter15_i" x="137" y="413" width="22" height="22" filterUnits="userSpaceOnUse" color-interpolation-filters="sRGB">
<feFlood flood-opacity="0" result="BackgroundImageFix"/>
<feBlend mode="normal" in="SourceGraphic" in2="BackgroundImageFix" result="shape"/>
<feColorMatrix in="SourceAlpha" type="matrix" values="0 0 0 0 0 0 0 0 0 0 0 0 0 0 0 0 0 0 127 0" result="hardAlpha"/>
<feOffset dx="2" dy="2"/>
<feGaussianBlur stdDeviation="2"/>
<feComposite in2="hardAlpha" operator="arithmetic" k2="-1" k3="1"/>
<feColorMatrix type="matrix" values="0 0 0 0 0.247059 0 0 0 0 0.247059 0 0 0 0 0.247059 0 0 0 1 0"/>
<feBlend mode="normal" in2="shape" result="effect1_innerShadow"/>
</filter>
<filter id="filter16_i" x="268" y="465" width="22" height="22" filterUnits="userSpaceOnUse" color-interpolation-filters="sRGB">
<feFlood flood-opacity="0" result="BackgroundImageFix"/>
<feBlend mode="normal" in="SourceGraphic" in2="BackgroundImageFix" result="shape"/>
<feColorMatrix in="SourceAlpha" type="matrix" values="0 0 0 0 0 0 0 0 0 0 0 0 0 0 0 0 0 0 127 0" result="hardAlpha"/>
<feOffset dx="2" dy="2"/>
<feGaussianBlur stdDeviation="2"/>
<feComposite in2="hardAlpha" operator="arithmetic" k2="-1" k3="1"/>
<feColorMatrix type="matrix" values="0 0 0 0 0.247059 0 0 0 0 0.247059 0 0 0 0 0.247059 0 0 0 1 0"/>
<feBlend mode="normal" in2="shape" result="effect1_innerShadow"/>
</filter>
<filter id="filter17_i" x="0" y="199" width="538" height="168" filterUnits="userSpaceOnUse" color-interpolation-filters="sRGB">
<feFlood flood-opacity="0" result="BackgroundImageFix"/>
<feBlend mode="normal" in="SourceGraphic" in2="BackgroundImageFix" result="shape"/>
<feColorMatrix in="SourceAlpha" type="matrix" values="0 0 0 0 0 0 0 0 0 0 0 0 0 0 0 0 0 0 127 0" result="hardAlpha"/>
<feOffset dx="-16" dy="-6"/>
<feGaussianBlur stdDeviation="40"/>
<feComposite in2="hardAlpha" operator="arithmetic" k2="-1" k3="1"/>
<feColorMatrix type="matrix" values="0 0 0 0 0.974 0 0 0 0 0.974889 0 0 0 0 0.976 0 0 0 0.03 0"/>
<feBlend mode="normal" in2="shape" result="effect1_innerShadow"/>
</filter>
<filter id="filter18_i" x="35" y="223" width="22" height="22" filterUnits="userSpaceOnUse" color-interpolation-filters="sRGB">
<feFlood flood-opacity="0" result="BackgroundImageFix"/>
<feBlend mode="normal" in="SourceGraphic" in2="BackgroundImageFix" result="shape"/>
<feColorMatrix in="SourceAlpha" type="matrix" values="0 0 0 0 0 0 0 0 0 0 0 0 0 0 0 0 0 0 127 0" result="hardAlpha"/>
<feOffset dx="2" dy="2"/>
<feGaussianBlur stdDeviation="2"/>
<feComposite in2="hardAlpha" operator="arithmetic" k2="-1" k3="1"/>
<feColorMatrix type="matrix" values="0 0 0 0 0.247059 0 0 0 0 0.247059 0 0 0 0 0.247059 0 0 0 1 0"/>
<feBlend mode="normal" in2="shape" result="effect1_innerShadow"/>
</filter>
<filter id="filter19_i" x="35" y="327" width="22" height="22" filterUnits="userSpaceOnUse" color-interpolation-filters="sRGB">
<feFlood flood-opacity="0" result="BackgroundImageFix"/>
<feBlend mode="normal" in="SourceGraphic" in2="BackgroundImageFix" result="shape"/>
<feColorMatrix in="SourceAlpha" type="matrix" values="0 0 0 0 0 0 0 0 0 0 0 0 0 0 0 0 0 0 127 0" result="hardAlpha"/>
<feOffset dx="2" dy="2"/>
<feGaussianBlur stdDeviation="2"/>
<feComposite in2="hardAlpha" operator="arithmetic" k2="-1" k3="1"/>
<feColorMatrix type="matrix" values="0 0 0 0 0.247059 0 0 0 0 0.247059 0 0 0 0 0.247059 0 0 0 1 0"/>
<feBlend mode="normal" in2="shape" result="effect1_innerShadow"/>
</filter>
<filter id="filter20_i" x="501" y="327" width="22" height="22" filterUnits="userSpaceOnUse" color-interpolation-filters="sRGB">
<feFlood flood-opacity="0" result="BackgroundImageFix"/>
<feBlend mode="normal" in="SourceGraphic" in2="BackgroundImageFix" result="shape"/>
<feColorMatrix in="SourceAlpha" type="matrix" values="0 0 0 0 0 0 0 0 0 0 0 0 0 0 0 0 0 0 127 0" result="hardAlpha"/>
<feOffset dx="2" dy="2"/>
<feGaussianBlur stdDeviation="2"/>
<feComposite in2="hardAlpha" operator="arithmetic" k2="-1" k3="1"/>
<feColorMatrix type="matrix" values="0 0 0 0 0.247059 0 0 0 0 0.247059 0 0 0 0 0.247059 0 0 0 1 0"/>
<feBlend mode="normal" in2="shape" result="effect1_innerShadow"/>
</filter>
<filter id="filter21_i" x="501" y="223" width="22" height="22" filterUnits="userSpaceOnUse" color-interpolation-filters="sRGB">
<feFlood flood-opacity="0" result="BackgroundImageFix"/>
<feBlend mode="normal" in="SourceGraphic" in2="BackgroundImageFix" result="shape"/>
<feColorMatrix in="SourceAlpha" type="matrix" values="0 0 0 0 0 0 0 0 0 0 0 0 0 0 0 0 0 0 127 0" result="hardAlpha"/>
<feOffset dx="2" dy="2"/>
<feGaussianBlur stdDeviation="2"/>
<feComposite in2="hardAlpha" operator="arithmetic" k2="-1" k3="1"/>
<feColorMatrix type="matrix" values="0 0 0 0 0.247059 0 0 0 0 0.247059 0 0 0 0 0.247059 0 0 0 1 0"/>
<feBlend mode="normal" in2="shape" result="effect1_innerShadow"/>
</filter>
<filter id="filter22_i" x="76.6382" y="264.199" width="413.913" height="44.3672" filterUnits="userSpaceOnUse" color-interpolation-filters="sRGB">
<feFlood flood-opacity="0" result="BackgroundImageFix"/>
<feBlend mode="normal" in="SourceGraphic" in2="BackgroundImageFix" result="shape"/>
<feColorMatrix in="SourceAlpha" type="matrix" values="0 0 0 0 0 0 0 0 0 0 0 0 0 0 0 0 0 0 127 0" result="hardAlpha"/>
<feOffset dx="2" dy="2"/>
<feGaussianBlur stdDeviation="2"/>
<feComposite in2="hardAlpha" operator="arithmetic" k2="-1" k3="1"/>
<feColorMatrix type="matrix" values="0 0 0 0 0.247059 0 0 0 0 0.247059 0 0 0 0 0.247059 0 0 0 1 0"/>
<feBlend mode="normal" in2="shape" result="effect1_innerShadow"/>
</filter>
<filter id="filter23_ddi" x="-52" y="129" width="690" height="314" filterUnits="userSpaceOnUse" color-interpolation-filters="sRGB">
<feFlood flood-opacity="0" result="BackgroundImageFix"/>
<feColorMatrix in="SourceAlpha" type="matrix" values="0 0 0 0 0 0 0 0 0 0 0 0 0 0 0 0 0 0 127 0"/>
<feOffset dx="-12" dy="-20"/>
<feGaussianBlur stdDeviation="28"/>
<feColorMatrix type="matrix" values="0 0 0 0 0.909 0 0 0 0 0.93084 0 0 0 0 0.951 0 0 0 0.05 0"/>
<feBlend mode="normal" in2="BackgroundImageFix" result="effect1_dropShadow"/>
<feColorMatrix in="SourceAlpha" type="matrix" values="0 0 0 0 0 0 0 0 0 0 0 0 0 0 0 0 0 0 127 0"/>
<feOffset dx="36" dy="12"/>
<feGaussianBlur stdDeviation="32"/>
<feColorMatrix type="matrix" values="0 0 0 0 0.294118 0 0 0 0 0.294118 0 0 0 0 0.294118 0 0 0 1 0"/>
<feBlend mode="normal" in2="effect1_dropShadow" result="effect2_dropShadow"/>
<feBlend mode="normal" in="SourceGraphic" in2="effect2_dropShadow" result="shape"/>
<feColorMatrix in="SourceAlpha" type="matrix" values="0 0 0 0 0 0 0 0 0 0 0 0 0 0 0 0 0 0 127 0" result="hardAlpha"/>
<feOffset dx="-16" dy="-6"/>
<feGaussianBlur stdDeviation="40"/>
<feComposite in2="hardAlpha" operator="arithmetic" k2="-1" k3="1"/>
<feColorMatrix type="matrix" values="0 0 0 0 0.974 0 0 0 0 0.974889 0 0 0 0 0.976 0 0 0 0.03 0"/>
<feBlend mode="normal" in2="shape" result="effect3_innerShadow"/>
</filter>
<radialGradient id="paint0_radial" cx="0" cy="0" r="1" gradientUnits="userSpaceOnUse" gradientTransform="translate(268.5 533.5) rotate(-80.4948) scale(439.028)">
<stop offset="0.182292" stop-color="#D400F7"/>
<stop offset="0.411458" stop-color="#FF3DC9"/>
<stop offset="0.854167" stop-color="#FFEA29"/>
</radialGradient>
<radialGradient id="paint1_radial" cx="0" cy="0" r="1" gradientUnits="userSpaceOnUse" gradientTransform="translate(269.554 611.502) rotate(-78.28) scale(174.951 169.642)">
<stop stop-color="#FF2929"/>
<stop offset="0.640784" stop-color="#FF3DC9"/>
<stop offset="0.994792" stop-color="#D400F7"/>
</radialGradient>
<linearGradient id="paint2_linear" x1="196.804" y1="-5.85714" x2="-500.416" y2="360.742" gradientUnits="userSpaceOnUse">
<stop offset="0.226599" stop-color="#4C4C4C"/>
<stop offset="0.697917" stop-color="#616161"/>
</linearGradient>
<linearGradient id="paint3_linear" x1="163.293" y1="342.961" x2="-58.4281" y2="375.071" gradientUnits="userSpaceOnUse">
<stop offset="0.0709612" stop-color="#484848"/>
<stop offset="0.507086" stop-color="#5F5F5F"/>
<stop offset="1" stop-color="#3F3F3F"/>
</linearGradient>
<linearGradient id="paint4_linear" x1="-68.5" y1="654" x2="108" y2="616.5" gradientUnits="userSpaceOnUse">
<stop stop-color="#616161"/>
<stop offset="1" stop-color="#4D4D4D"/>
</linearGradient>
<linearGradient id="paint5_linear" x1="163.293" y1="342.961" x2="-58.4281" y2="375.071" gradientUnits="userSpaceOnUse">
<stop offset="0.0709612" stop-color="#484848"/>
<stop offset="0.507086" stop-color="#5F5F5F"/>
<stop offset="1" stop-color="#3F3F3F"/>
</linearGradient>
</defs>
</svg>
